<svg width="21" height="21" viewBox="0 0 21 21" fill="none" xmlns="http://www.w3.org/2000/svg">
<path d="M18.9962 17.7537L15.75 14.5337C17.0101 12.9626 17.6203 10.9684 17.4552 8.96112C17.2901 6.95387 16.3622 5.08616 14.8623 3.74204C13.3624 2.39792 11.4046 1.67955 9.3913 1.73464C7.37803 1.78973 5.46237 2.61409 4.03824 4.03823C2.61411 5.46236 1.78974 7.37801 1.73465 9.39129C1.67956 11.4046 2.39794 13.3624 3.74206 14.8623C5.08618 16.3622 6.95388 17.2901 8.96113 17.4552C10.9684 17.6203 12.9626 17.0101 14.5337 15.75L17.7537 18.97C17.8351 19.052 17.9319 19.1171 18.0385 19.1615C18.1451 19.2059 18.2595 19.2288 18.375 19.2288C18.4905 19.2288 18.6049 19.2059 18.7115 19.1615C18.8181 19.1171 18.9149 19.052 18.9962 18.97C19.154 18.8068 19.2421 18.5888 19.2421 18.3619C19.2421 18.1349 19.154 17.9169 18.9962 17.7537ZM9.62499 15.75C8.41358 15.75 7.22938 15.3908 6.22213 14.7177C5.21487 14.0447 4.42982 13.0881 3.96623 11.9689C3.50264 10.8497 3.38135 9.61818 3.61768 8.43005C3.85402 7.24192 4.43737 6.15055 5.29396 5.29395C6.15056 4.43735 7.24193 3.854 8.43006 3.61767C9.6182 3.38133 10.8497 3.50263 11.9689 3.96622C13.0881 4.4298 14.0447 5.21486 14.7177 6.22211C15.3908 7.22936 15.75 8.41357 15.75 9.62498C15.75 11.2494 15.1047 12.8073 13.956 13.956C12.8074 15.1047 11.2494 15.75 9.62499 15.75Z" fill="white"/>
</svg>
