<svg width="53" height="57" viewBox="0 0 53 57" fill="none" xmlns="http://www.w3.org/2000/svg">
<g clip-path="url(#clip0_23_1003)">
<path d="M51.2088 27.3089C51.0363 27.2238 50.7776 27.1388 50.5189 27.0537C50.4327 27.0537 50.4327 27.0537 50.3464 27.0537H50.2602H50.174C50.0877 27.0537 50.0015 27.0537 49.9153 27.0537H34.3066C33.1856 27.0537 32.3232 27.9044 32.3232 29.0104C32.3232 30.1164 33.1856 30.9671 34.3066 30.9671H40.3431C40.5156 30.9671 40.6881 31.1373 40.6881 31.3074C40.6881 31.3925 40.6018 31.4776 40.5156 31.5627C37.1524 33.3492 32.9269 34.3701 28.1839 34.3701C27.0629 34.3701 25.9418 34.285 24.8207 34.2V38.7089C25.7693 38.794 26.7179 38.794 27.6665 38.794C34.2204 38.794 40.1707 37.2627 44.5687 34.6253C44.6549 34.6253 44.6549 34.5403 44.7411 34.5403C44.9998 34.5403 45.1723 34.7104 45.1723 34.9656V35.0507L44.2237 37.5179C43.7063 38.794 44.3962 40.2403 45.776 40.7507C46.0347 40.8358 46.3796 40.9209 46.6383 40.9209C47.6731 40.9209 48.6217 40.3253 49.0529 39.3045L52.4161 30.2865C52.9335 29.1806 52.4161 27.9044 51.2088 27.3089Z" fill="#7C7C7C"/>
<path d="M28.2702 10.3792C33.0131 10.3792 37.3249 11.4852 40.6881 13.2718C40.6881 13.2718 42.844 14.8031 43.7926 13.3568C44.9136 11.6553 42.6715 10.6344 42.6715 10.6344C38.5322 8.67773 33.3581 7.57178 27.839 7.57178C26.8904 7.57178 25.9418 7.57176 24.9932 7.65683V10.5494C26.0281 10.3792 27.1491 10.3792 28.2702 10.3792Z" fill="#7C7C7C"/>
<path d="M4.21046 0C2.31328 0 0.674805 1.53135 0.674805 3.48807V41.5164C0.674805 43.4731 2.22705 45.0045 4.21046 45.0045H24.907V38.709C12.4891 37.8582 2.83069 31.2224 2.83069 23.1403C2.83069 15.0582 12.4891 8.50748 24.907 7.57166V0H4.21046Z" fill="#7C7C7C"/>
<path d="M9.03967 22.3747C9.03967 28.3299 15.8523 33.2642 24.907 34.2001V10.5493C15.9385 11.4851 9.03967 16.4195 9.03967 22.3747Z" fill="#7C7C7C"/>
<path d="M8.78094 52.9161C8.6947 55.3833 6.97001 56.9997 4.72788 56.9997C3.52059 56.9997 2.48576 56.5743 1.70964 55.6385C1.01976 54.8728 0.674805 53.937 0.674805 52.831C0.674805 51.725 1.10598 50.7042 1.8821 49.9385C2.65822 49.1728 3.6068 48.8325 4.8141 48.8325C6.45257 48.8325 7.74611 49.5982 8.34976 50.9594H6.88377C6.36636 50.2788 5.59024 49.9385 4.72788 49.9385C3.95176 49.9385 3.26186 50.1937 2.74445 50.7892C2.1408 51.3847 1.8821 52.1504 1.8821 52.9161C1.8821 53.7668 2.1408 54.5325 2.65821 55.043C3.17562 55.6385 3.95176 55.8937 4.72788 55.8937C5.93518 55.8937 6.88375 55.2982 7.4874 54.0221H3.86553V52.9161H8.78094Z" fill="#7C7C7C"/>
<path d="M10.0745 56.8294H8.86719L11.9717 48.9175H13.0927L16.1972 56.8294H14.9037L14.0413 54.5324H10.9368L10.0745 56.8294ZM12.4891 50.4488L11.368 53.4265H13.6101L12.4891 50.4488Z" fill="#7C7C7C"/>
<path d="M16.6284 56.8294V48.9175H18.3531L20.6814 55.0429L23.0098 48.9175H24.7345V56.8294H23.6134L23.6997 50.0235L21.1126 56.8294H20.2503L17.6632 50.0235L17.7494 56.8294H16.6284Z" fill="#7C7C7C"/>
<path d="M29.8224 56.9998C28.6151 56.9998 27.6665 56.5744 26.8904 55.7237C26.1143 54.958 25.7693 53.9371 25.7693 52.8311C25.7693 51.7252 26.2005 50.7043 26.9766 49.9386C27.7528 49.1729 28.7876 48.7476 29.9086 48.7476C31.8058 48.7476 33.3581 49.9386 33.8755 51.8953H31.7196C31.2884 51.1296 30.6848 50.7043 29.8224 50.7043C28.6151 50.7043 27.6665 51.6401 27.6665 52.7461C27.6665 54.0222 28.6151 54.958 29.7362 54.958C30.5123 54.958 31.1159 54.5326 31.5471 53.852H33.703C33.2718 55.8088 31.7196 56.9998 29.8224 56.9998Z" fill="#7C7C7C"/>
<path d="M35.7726 56.8294H33.6168L36.7212 48.9175H38.3597L41.4642 56.8294H39.3083L38.8771 55.7235H36.2038L35.7726 56.8294ZM37.4974 51.5548L36.7212 54.107H38.2735L37.4974 51.5548Z" fill="#7C7C7C"/>
<path d="M41.4642 56.8294V48.9175H44.1375C44.9998 48.9175 45.6035 49.0026 46.1209 49.3429C46.8108 49.8533 47.242 50.5339 47.242 51.5548C47.242 52.8309 46.5521 53.7667 45.431 54.107L47.4144 56.8294H44.9998L43.4476 54.2772V56.8294H41.4642ZM43.8788 52.5757C44.8274 52.5757 45.3448 52.3205 45.3448 51.6399C45.3448 50.9593 44.9136 50.7041 44.0512 50.7041H43.5338V52.5757H43.8788Z" fill="#7C7C7C"/>
<path d="M48.2768 56.8294V48.9175H52.5886V50.619H50.174V51.8951H52.5886V53.6817H50.174V55.0429H52.5886V56.7444H48.2768V56.8294Z" fill="#7C7C7C"/>
</g>
<defs>
<clipPath id="clip0_23_1003">
<rect width="52" height="57" fill="white" transform="translate(0.674805)"/>
</clipPath>
</defs>
</svg>
