<svg width="297" height="63" viewBox="0 0 297 63" fill="none" xmlns="http://www.w3.org/2000/svg">
<path fill-rule="evenodd" clip-rule="evenodd" d="M25.025 58.0466C23.1275 57.476 21.9102 55.9766 22.308 54.6986C22.7077 53.4206 24.5685 52.8446 26.4697 53.4152C28.3672 53.9858 29.5845 55.4852 29.1867 56.7632C28.7889 58.0412 26.9262 58.6172 25.025 58.0466ZM18.5093 56.0594C17.8952 56.9504 16.1792 56.8658 14.674 55.8704C14.2102 55.5644 13.0167 54.875 11.8324 54.1532C11.2054 53.8346 10.4665 54.218 9.78452 53.7662C8.12902 52.5602 5.90152 49.9322 6.61285 49.376C7.74218 48.5048 9.16485 51.2876 11.5885 52.1696C12.8994 52.6322 13.5318 50.5496 16.8924 52.6376C18.3975 53.6348 19.1217 55.1666 18.5093 56.0576V56.0594ZM24.6877 41.0186C24.1496 41.0186 23.6168 40.9145 23.1196 40.7123C22.6225 40.5102 22.1708 40.2138 21.7903 39.8403C21.4098 39.4667 21.108 39.0232 20.9021 38.5351C20.6962 38.047 20.5902 37.5239 20.5902 36.9956C20.5902 36.4673 20.6962 35.9441 20.9021 35.456C21.108 34.9679 21.4098 34.5245 21.7903 34.1509C22.1708 33.7773 22.6225 33.481 23.1196 33.2788C23.6168 33.0766 24.1496 32.9726 24.6877 32.9726C25.7744 32.9726 26.8166 33.3964 27.5851 34.1509C28.3535 34.9053 28.7852 35.9286 28.7852 36.9956C28.7852 38.0625 28.3535 39.0858 27.5851 39.8403C26.8166 40.5947 25.7744 41.0186 24.6877 41.0186ZM4.63652 30.341C3.51085 30.1862 2.81602 28.5374 3.08552 26.6582C3.35502 24.7808 4.48435 23.3822 5.61002 23.5388C6.73568 23.6936 7.43052 25.3424 7.16102 27.2216C6.89152 29.099 5.76218 30.4976 4.63652 30.341ZM12.1275 19.64C10.8405 18.7544 10.7324 16.724 11.8874 15.104C13.0424 13.4822 15.0242 12.8864 16.313 13.772C17.6019 14.6594 17.71 16.6898 16.555 18.3116C15.4 19.9316 13.4164 20.5256 12.1275 19.64ZM12.8095 11.126C10.087 10.2152 7.73668 14.8934 6.67335 13.5074C6.20768 12.6362 8.69185 8.60417 11.2439 8.91737C12.7234 9.13698 14.9105 6.28577 17.0133 6.28037C18.007 6.28037 18.766 6.56117 18.766 7.68437C18.766 8.80577 16.511 12.5426 12.8095 11.1278V11.126ZM5.59168 39.2258C4.65852 39.2258 3.06718 38.513 3.06718 36.3098C3.06718 34.1102 3.40635 33.0626 4.65852 32.9744C6.94102 32.6954 6.41668 34.9148 8.91185 34.7636C10.263 34.7204 10.2538 33.1382 13.3284 33.1382C15.8217 33.1382 16.6119 35.6906 16.6119 36.9938C16.6119 38.2988 16.1664 40.2626 13.2605 40.2626C10.9725 40.2626 10.7635 38.2988 8.71385 38.2988C6.75952 38.423 6.96668 39.2258 5.59168 39.2258ZM1.14768 38.0126C0.768183 38.0468 0.355684 36.8912 0.225517 35.4332C0.0953502 33.9752 0.29885 32.7674 0.676517 32.7332C1.05602 32.7026 1.46852 33.8564 1.59868 35.3144C1.72885 36.7724 1.52535 37.9802 1.14768 38.0144V38.0126ZM36.8189 29.6552C34.5345 29.6552 33.1815 28.118 33.1815 26.2208C33.1815 24.3254 34.8205 22.2356 36.7528 22.2356C39.8329 22.0466 41.2243 24.3668 42.3262 24.2156C43.6792 24.1724 45.7747 22.2158 48.8492 22.2158C51.3443 22.2158 52.6625 24.0338 52.6625 26.0948C52.6625 28.154 51.4415 29.9054 48.1397 29.9504C44.6545 29.9972 44.6509 27.6914 42.1264 27.7508C40.1757 27.875 39.5725 29.6552 36.8189 29.6552ZM26.9134 3.27077C25.2047 3.62717 23.6793 3.27437 23.5089 2.48237C23.3365 1.69037 24.5832 0.761574 26.2937 0.405174C28.0042 0.0469741 29.5277 0.399774 29.7 1.19177C29.8705 1.98377 28.6239 2.91257 26.9134 3.27077ZM36.4247 9.56358C34.4044 9.32058 32.912 7.95617 33.0917 6.51977C33.2713 5.07977 35.0552 4.11317 37.0755 4.35617C39.0958 4.60097 40.5882 5.96357 40.4085 7.40177C40.2289 8.83817 38.4468 9.80657 36.4247 9.56177V9.56358ZM23.4447 60.6926C23.584 59.9186 25.1075 59.5352 26.8474 59.8376C28.5872 60.1382 29.8834 61.0094 29.744 61.7816C29.6065 62.5556 28.083 62.9408 26.3432 62.6384C24.6034 62.3378 23.3072 61.4666 23.4465 60.6944L23.4447 60.6926ZM15.4257 57.9962C15.6439 57.557 16.9657 57.7514 18.381 58.4282C19.7945 59.105 20.7644 60.0104 20.5462 60.4478C20.328 60.887 19.0062 60.6926 17.5927 60.0158C16.1774 59.339 15.2093 58.4336 15.4257 57.9962Z" fill="#7C7C7C"/>
<path fill-rule="evenodd" clip-rule="evenodd" d="M4.41101 21.1626C3.12768 19.0008 2.01118 23.4108 1.45385 22.9248C1.00835 22.5522 2.87285 18.3312 3.23218 18.0648C3.44485 17.847 4.31018 17.9298 4.67501 17.3772C5.66685 15.876 7.13901 15.0858 7.96401 15.6132C8.78901 16.137 8.69185 17.8992 7.70001 19.3986C6.70818 20.898 4.91151 21.9366 4.41101 21.1626ZM24.7867 19.233C23.859 19.233 22.9692 18.8711 22.3132 18.2271C21.6572 17.583 21.2887 16.7094 21.2887 15.7986C21.2887 14.8877 21.6572 14.0142 22.3132 13.3701C22.9692 12.726 23.859 12.3642 24.7867 12.3642C27.8667 12.1752 29.8779 13.9104 30.9797 13.7574C32.3327 13.7142 35.0424 11.9412 37.2808 11.9718C38.2736 11.9932 39.2184 12.3954 39.9128 13.0924C40.6072 13.7893 40.9961 14.7255 40.9961 15.7005C40.9961 16.6754 40.6072 17.6116 39.9128 18.3086C39.2184 19.0055 38.2736 19.4077 37.2808 19.4292C35.4493 19.4292 33.3814 16.9758 30.8587 17.0352C28.9044 17.1576 26.7703 19.3752 24.7867 19.233ZM13.3577 29.9034C11.0733 29.9034 10.1952 28.368 10.1952 26.4708C10.1952 24.5736 11.6875 22.7448 13.6198 22.7448C16.6998 22.5558 17.4552 24.6168 18.557 24.4656C19.91 24.4206 21.9322 22.2336 25.0085 22.2336C27.5018 22.2336 28.5963 24.0606 28.5963 26.1198C28.5963 28.179 27.126 29.9034 24.2293 29.9034C21.7048 29.9034 20.8835 27.9414 18.359 28.0008C16.4065 28.125 16.1113 29.9034 13.3577 29.9034ZM37.477 40.9248C35.1927 40.9248 33.4254 39.9888 33.4254 37.2888C33.4254 34.5888 35.0625 33.3036 36.9949 33.3036C40.0749 33.1146 42.4527 35.433 43.5545 35.2818C44.9075 35.2386 46.2183 33.0606 49.2929 33.0606C51.7899 33.0606 52.9045 35.1036 52.9045 37.1628C52.9045 39.222 52.0319 40.4658 48.73 40.5108C45.243 40.5594 46.079 38.7234 43.5545 38.7828C41.602 38.9052 40.2307 40.9248 37.477 40.9248ZM25.4687 50.6772C23.1843 50.6772 21.318 49.3236 21.318 46.935C21.318 44.5482 23.1238 43.911 25.0562 43.911C28.3855 43.983 28.6532 46.0854 31.2217 45.6876C32.5729 45.6426 34.0047 44.028 37.0792 44.028C39.5725 44.028 40.9109 45.3384 40.9109 47.3976C40.9109 49.4568 39.3103 50.8698 36.6245 50.8338C33.7462 50.8338 33.7462 49.1292 31.2217 49.1868C29.2692 49.3128 28.2223 50.6772 25.4705 50.6772H25.4687ZM16.5898 49.1292C15.4018 50.076 13.3962 49.5792 12.111 48.0186C10.8277 46.4616 10.747 44.4312 11.935 43.4862C13.1248 42.543 15.1287 43.0398 16.4157 44.5986C17.699 46.1556 17.7778 48.186 16.5898 49.131V49.1292ZM36.146 2.98256C34.408 2.80256 33.066 2.03396 33.1485 1.26536C33.231 0.496765 34.7069 0.0197648 36.4449 0.197965C38.1828 0.377965 39.5249 1.14656 39.4424 1.91516C39.3599 2.68376 37.884 3.16256 36.146 2.98256ZM46.1945 10.0494C44.5207 9.10077 43.6609 7.48796 44.2714 6.44756C44.8837 5.40716 46.7372 5.33336 48.411 6.28196C50.0849 7.23056 50.9447 8.84337 50.3342 9.88377C49.7219 10.9242 47.8702 10.998 46.1945 10.0494ZM18.3902 4.51076C16.929 5.23976 15.576 5.50617 15.367 5.10116C15.158 4.69796 16.1718 3.77996 17.6312 3.04916C19.0905 2.31836 20.4435 2.05376 20.6525 2.45696C20.8615 2.86196 19.8495 3.77996 18.3902 4.50897V4.51076ZM7.80085 47.5542C6.87318 48.0384 5.43585 47.1618 4.59068 45.5976C3.80235 44.298 3.69235 45.4068 3.22851 44.7228C2.25685 43.2972 1.20268 40.3488 1.56935 40.2606C1.93235 40.0932 2.68768 41.913 3.58785 42.4638C4.08101 42.7644 4.17451 42.0588 4.73368 41.8914C5.65951 41.4072 7.09685 42.2838 7.94201 43.848C8.79085 45.4104 8.72668 47.07 7.80085 47.5542ZM44.1412 56.8368C43.45 55.7928 44.2769 54.0576 45.991 52.9668C47.7034 51.8742 49.6522 51.8364 50.3433 52.8822C51.0345 53.9262 50.2077 55.6596 48.4935 56.7522C46.7812 57.8448 44.8324 57.8826 44.1412 56.8368ZM33.11 61.7274C33.0403 60.9444 34.4099 60.1866 36.1698 60.0354C37.9299 59.8842 39.4112 60.3954 39.4809 61.1784C39.5505 61.9614 38.181 62.7192 36.421 62.8704C34.661 63.0216 33.1797 62.5104 33.11 61.7274Z" fill="#7C7C7C"/>
<path fill-rule="evenodd" clip-rule="evenodd" d="M59.5687 10.0225H61.4021V51.6295H59.5687V10.0225Z" fill="#7C7C7C"/>
<path d="M68.8325 8.07122H70.697V10.2762H68.8325V8.07122ZM68.8325 12.3948H70.697V23.6628H68.8325V12.3948ZM73.304 12.3948H75.1667V14.3388H75.2272C75.581 13.6548 76.2135 13.104 77.1192 12.69C78.0563 12.2686 79.0768 12.0559 80.1075 12.0672C81.1727 12.0672 82.0655 12.168 82.7842 12.3732C83.5047 12.5766 84.0822 12.8646 84.5167 13.2354C84.9494 13.6062 85.2555 14.0616 85.4334 14.5998C85.6112 15.1398 85.6992 15.7428 85.6992 16.4124V23.6628H83.8384V16.6302C83.8413 16.1768 83.7815 15.725 83.6605 15.2874C83.547 14.8823 83.3328 14.5112 83.0372 14.2074C82.7018 13.8778 82.2915 13.631 81.84 13.4874C81.3377 13.311 80.7107 13.2246 79.9627 13.2246C79.211 13.2246 78.5474 13.3218 77.9644 13.5198C77.4234 13.6937 76.9212 13.9674 76.4849 14.3262C76.0815 14.6682 75.7662 15.0768 75.5389 15.5502C75.3095 16.033 75.1835 16.5568 75.1685 17.0892V23.6628H73.3059V12.3948H73.304ZM91.234 12.3948H94.3415V13.5522H91.2359V21.1518C91.2359 21.6018 91.3184 21.9546 91.487 22.2102C91.6539 22.464 92.0737 22.6062 92.7447 22.635C93.2764 22.635 93.808 22.6134 94.3415 22.5702V23.7276C94.0665 23.7276 93.7897 23.7348 93.5129 23.7492C93.2379 23.7636 92.961 23.7708 92.6842 23.7708C91.443 23.7708 90.5759 23.5926 90.0809 23.2362C89.5877 22.8798 89.3512 22.221 89.3714 21.2598V13.554H86.7094V12.3966H89.3714V9.01262H91.2359V12.3966L91.234 12.3948ZM107.067 17.2422C107.047 16.7207 106.922 16.2083 106.696 15.7356C106.467 15.2507 106.14 14.8161 105.736 14.4576C105.294 14.0701 104.782 13.7667 104.227 13.563C103.583 13.3283 102.9 13.2136 102.214 13.2246C101.444 13.2246 100.766 13.3362 100.173 13.563C99.6182 13.7667 99.1066 14.0701 98.6645 14.4576C98.2555 14.8228 97.9197 15.2599 97.6745 15.7464C97.4325 16.2167 97.2673 16.7215 97.185 17.2422H107.067ZM97.185 18.3996C97.185 18.8946 97.2785 19.4076 97.4655 19.9386C97.6544 20.4696 97.955 20.9466 98.3694 21.3696C98.8182 21.8147 99.3505 22.1705 99.9369 22.4172C100.568 22.6944 101.327 22.8312 102.214 22.8312C103.576 22.8312 104.641 22.5702 105.409 22.0464C106.179 21.5226 106.711 20.8224 107.008 19.9494H108.871C108.477 21.231 107.752 22.221 106.696 22.9194C105.642 23.6178 104.148 23.967 102.214 23.967C101.011 23.967 99.9717 23.8122 99.0935 23.499C98.2154 23.1858 97.5004 22.7556 96.9485 22.2102C96.4018 21.673 95.9824 21.024 95.7202 20.3094C95.452 19.5781 95.3167 18.8061 95.3205 18.0288C95.3212 17.2835 95.4565 16.5443 95.7202 15.8454C95.9879 15.1308 96.3967 14.4954 96.9485 13.9338C97.5004 13.374 98.2154 12.9222 99.0935 12.5802C99.9717 12.2382 101.011 12.0672 102.214 12.0672C103.437 12.0672 104.484 12.2472 105.349 12.6126C106.218 12.9762 106.924 13.4532 107.466 14.0436C108.009 14.6322 108.398 15.309 108.634 16.074C108.873 16.839 108.97 17.613 108.931 18.3996H97.185ZM110.502 12.3948H112.218V15.0372H112.277C112.75 14.1192 113.485 13.4136 114.481 12.9186C115.476 12.4236 116.666 12.1986 118.047 12.2418V13.617C117.268 13.5801 116.488 13.6651 115.737 13.869C115.095 14.0432 114.49 14.3278 113.949 14.7096C113.465 15.0517 113.066 15.4958 112.779 16.0092C112.504 16.5114 112.365 17.0604 112.365 17.6562V23.6628H110.502V12.3948ZM119.381 12.3948H121.244V14.3388H121.304C121.658 13.6548 122.289 13.104 123.196 12.69C124.134 12.2686 125.154 12.0559 126.185 12.0672C127.25 12.0672 128.143 12.168 128.861 12.3732C129.582 12.5766 130.159 12.8646 130.594 13.2354C131.027 13.6062 131.333 14.0616 131.511 14.5998C131.688 15.1398 131.776 15.7428 131.776 16.4124V23.6628H129.912V16.6302C129.912 16.1496 129.853 15.7032 129.736 15.2874C129.622 14.8823 129.408 14.5112 129.113 14.2074C128.777 13.8778 128.367 13.631 127.915 13.4874C127.413 13.311 126.786 13.2246 126.038 13.2246C125.286 13.2246 124.623 13.3218 124.04 13.5198C123.499 13.6937 122.997 13.9674 122.56 14.3262C122.157 14.6682 121.842 15.0768 121.614 15.5502C121.385 16.033 121.259 16.5568 121.244 17.0892V23.6628H119.381V12.3948ZM134.176 15.8454C134.235 15.1902 134.424 14.6214 134.739 14.1408C135.054 13.6602 135.483 13.2678 136.026 12.9618C136.62 12.637 137.264 12.4085 137.933 12.285C138.664 12.141 139.473 12.0672 140.36 12.0672C141.029 12.0672 141.7 12.114 142.371 12.2094C143.042 12.303 143.644 12.4812 144.175 12.744C144.707 13.005 145.143 13.374 145.477 13.8474C145.812 14.319 145.981 14.9346 145.981 15.6924V21.6756C145.981 22.2282 146.346 22.5036 147.076 22.5036C147.292 22.5036 147.49 22.4748 147.668 22.4172V23.5746C147.266 23.6364 146.86 23.6659 146.454 23.6628C146.069 23.6744 145.685 23.6258 145.316 23.5188C145.062 23.444 144.832 23.305 144.65 23.1156C144.491 22.9398 144.384 22.7253 144.338 22.4946C144.287 22.2319 144.263 21.9647 144.265 21.6972H144.206C143.889 22.0439 143.548 22.3687 143.185 22.6692C142.835 22.956 142.446 23.1946 142.03 23.3784C141.567 23.5799 141.081 23.7268 140.582 23.8158C139.942 23.9252 139.293 23.9758 138.644 23.967C137.933 23.967 137.269 23.9058 136.646 23.7816C136.074 23.6761 135.524 23.4771 135.02 23.193C134.576 22.9424 134.201 22.5905 133.925 22.167C133.65 21.7229 133.512 21.2105 133.525 20.691C133.525 19.9062 133.764 19.2906 134.235 18.8478C134.71 18.4032 135.335 18.0648 136.114 17.8326C136.973 17.5845 137.855 17.4199 138.747 17.3412C139.724 17.2458 140.714 17.154 141.72 17.0676C142.115 17.0388 142.459 17.0028 142.756 16.9596C143.015 16.9271 143.265 16.8491 143.495 16.7292C143.687 16.6246 143.846 16.4694 143.953 16.281C144.072 16.0517 144.129 15.7964 144.118 15.5394C144.118 15.0714 144.014 14.6916 143.807 14.3928C143.59 14.0862 143.293 13.8415 142.949 13.6836C142.547 13.4984 142.117 13.3768 141.676 13.3236C141.162 13.2558 140.643 13.2228 140.124 13.2246C138.939 13.2246 137.973 13.4316 137.223 13.8474C136.473 14.2614 136.079 14.9274 136.041 15.8454H134.176ZM144.117 17.505H144.058C143.939 17.6652 143.713 17.7804 143.378 17.8542C143.085 17.9198 142.789 17.9709 142.49 18.0072C141.702 18.108 140.886 18.1998 140.048 18.279C139.277 18.3485 138.512 18.4687 137.757 18.639C137.066 18.801 136.499 19.0296 136.055 19.3284C135.841 19.4669 135.668 19.6574 135.551 19.8813C135.434 20.1053 135.379 20.3551 135.39 20.6064C135.39 20.9538 135.482 21.2634 135.67 21.5334C135.857 21.8034 136.11 22.0356 136.424 22.2318C136.741 22.4298 137.106 22.5774 137.52 22.68C137.933 22.7808 138.358 22.833 138.791 22.833C139.502 22.833 140.182 22.752 140.833 22.5918C141.484 22.4316 142.05 22.1994 142.534 21.8934C142.996 21.6075 143.39 21.2275 143.689 20.7792C143.974 20.3436 144.117 19.8486 144.117 19.2942V17.505ZM151.725 12.393H154.831V13.5522H151.723V21.1518C151.723 21.6018 151.807 21.9546 151.974 22.2102C152.143 22.464 152.561 22.6062 153.232 22.635C153.764 22.635 154.297 22.6134 154.831 22.5702V23.7276C154.554 23.7276 154.277 23.7348 154.002 23.7492C153.727 23.7636 153.45 23.7708 153.173 23.7708C151.93 23.7708 151.063 23.5926 150.57 23.2362C150.075 22.8798 149.84 22.221 149.86 21.2598V13.554H147.197V12.3966H149.86V9.01262H151.723V12.3966L151.725 12.393ZM156.609 8.07122H158.472V10.2762H156.609V8.07122ZM156.609 12.3948H158.472V23.6628H156.609V12.3948ZM167.558 13.2228C166.67 13.2228 165.891 13.3632 165.22 13.6386C164.551 13.9158 163.992 14.2794 163.55 14.7312C163.106 15.1812 162.771 15.696 162.543 16.2702C162.319 16.8304 162.203 17.4269 162.202 18.0288C162.202 18.6246 162.316 19.2114 162.543 19.7856C162.771 20.3616 163.106 20.8746 163.55 21.3264C163.994 21.7764 164.551 22.14 165.22 22.4172C165.891 22.6944 166.67 22.8312 167.558 22.8312C168.445 22.8312 169.226 22.6944 169.895 22.4172C170.566 22.14 171.123 21.7764 171.567 21.3264C172.005 20.8844 172.347 20.3604 172.574 19.7856C172.796 19.2257 172.911 18.63 172.913 18.0288C172.912 17.4271 172.797 16.8307 172.574 16.2702C172.346 15.6958 172.003 15.1724 171.565 14.7312C171.091 14.2592 170.523 13.8873 169.897 13.6386C169.224 13.3632 168.445 13.2246 167.558 13.2246V13.2228ZM167.558 12.0672C168.722 12.0672 169.752 12.2274 170.65 12.5478C171.549 12.8682 172.3 13.2966 172.913 13.8348C173.525 14.3748 173.987 15.0048 174.304 15.7248C174.62 16.4448 174.777 17.2134 174.777 18.0288C174.777 18.8442 174.62 19.6128 174.304 20.3328C173.987 21.0528 173.525 21.6828 172.913 22.221C172.302 22.761 171.547 23.1858 170.65 23.499C169.752 23.8122 168.722 23.967 167.558 23.967C166.395 23.967 165.363 23.8122 164.467 23.499C163.634 23.2229 162.864 22.7887 162.202 22.221C161.603 21.6988 161.129 21.0535 160.813 20.331C160.496 19.603 160.335 18.8187 160.34 18.027C160.34 17.2134 160.497 16.4448 160.813 15.723C161.128 15.003 161.592 14.373 162.202 13.8348C162.866 13.2671 163.635 12.8302 164.467 12.5478C165.365 12.2274 166.395 12.0672 167.558 12.0672ZM176.585 12.3948H178.449V14.3388H178.508C178.864 13.6548 179.494 13.104 180.402 12.69C181.339 12.2686 182.359 12.0559 183.39 12.0672C184.454 12.0672 185.346 12.168 186.067 12.3732C186.787 12.5766 187.363 12.8646 187.798 13.2354C188.232 13.6062 188.536 14.0616 188.714 14.5998C188.892 15.1398 188.98 15.7428 188.98 16.4124V23.6628H187.117V16.6302C187.12 16.1768 187.061 15.725 186.94 15.2874C186.827 14.8825 186.613 14.5114 186.318 14.2074C185.983 13.8778 185.572 13.631 185.121 13.4874C184.617 13.311 183.992 13.2246 183.242 13.2246C182.492 13.2246 181.826 13.3218 181.243 13.5198C180.703 13.6933 180.201 13.967 179.766 14.3262C179.365 14.664 179.042 15.0811 178.818 15.5502C178.589 16.0331 178.464 16.5569 178.449 17.0892V23.6628H176.585V12.3948ZM191.38 15.8454C191.44 15.1902 191.627 14.6214 191.943 14.1408C192.258 13.6602 192.687 13.2678 193.23 12.9618C193.824 12.6376 194.468 12.4091 195.136 12.285C195.868 12.141 196.676 12.0672 197.564 12.0672C198.235 12.0672 198.906 12.114 199.575 12.2094C200.246 12.303 200.847 12.4812 201.381 12.744C201.912 13.005 202.347 13.374 202.682 13.8474C203.018 14.319 203.185 14.9346 203.185 15.6924V21.6756C203.185 22.2282 203.551 22.5036 204.279 22.5036C204.496 22.5036 204.694 22.4748 204.871 22.4172V23.5746C204.47 23.6364 204.064 23.6659 203.658 23.6628C203.273 23.6744 202.889 23.6258 202.519 23.5188C202.265 23.444 202.036 23.305 201.854 23.1156C201.695 22.9398 201.587 22.7253 201.542 22.4946C201.491 22.2319 201.466 21.9647 201.469 21.6972H201.41C201.093 22.0439 200.752 22.3687 200.389 22.6692C200.038 22.956 199.65 23.1946 199.234 23.3784C198.77 23.5799 198.284 23.7268 197.786 23.8158C197.146 23.9252 196.497 23.9758 195.848 23.967C195.138 23.967 194.473 23.9058 193.849 23.7816C193.278 23.6761 192.728 23.4771 192.223 23.193C191.78 22.9424 191.404 22.5905 191.129 22.167C190.854 21.7229 190.715 21.2105 190.729 20.691C190.729 19.9062 190.967 19.2906 191.44 18.8478C191.913 18.4032 192.54 18.0648 193.318 17.8326C194.097 17.5986 194.975 17.4366 195.952 17.3412C196.942 17.2442 197.933 17.153 198.924 17.0676C199.318 17.0388 199.665 17.0028 199.96 16.9596C200.257 16.9146 200.503 16.839 200.701 16.7292C200.893 16.6246 201.052 16.4694 201.159 16.281C201.276 16.0514 201.332 15.7961 201.32 15.5394C201.32 15.0714 201.218 14.6916 201.01 14.3928C200.793 14.0862 200.497 13.8415 200.152 13.6836C199.75 13.4984 199.321 13.3768 198.88 13.3236C198.365 13.2558 197.847 13.2228 197.327 13.2246C196.143 13.2246 195.177 13.4316 194.427 13.8474C193.679 14.2614 193.285 14.9274 193.244 15.8454H191.38ZM201.32 17.505H201.262C201.144 17.6652 200.917 17.7804 200.581 17.8542C200.288 17.9198 199.992 17.9709 199.694 18.0072C198.906 18.108 198.092 18.1998 197.254 18.279C196.482 18.3484 195.716 18.4687 194.96 18.639C194.269 18.801 193.703 19.0296 193.259 19.3284C193.045 19.4669 192.871 19.6574 192.755 19.8813C192.638 20.1053 192.583 20.3551 192.594 20.6064C192.594 20.9538 192.687 21.2634 192.874 21.5334C193.063 21.8034 193.314 22.0356 193.629 22.2318C193.967 22.4385 194.337 22.5899 194.724 22.68C195.138 22.7808 195.562 22.833 195.996 22.833C196.684 22.8353 197.369 22.7543 198.037 22.5918C198.688 22.4316 199.256 22.1994 199.738 21.8934C200.2 21.6079 200.594 21.2279 200.893 20.7792C201.177 20.3436 201.32 19.8486 201.32 19.2942V17.505ZM205.999 8.07122H207.863V23.6628H205.999V8.07122ZM216.55 5.89682H218.414V13.23H218.473C218.671 12.7674 218.951 12.3642 219.316 12.0168C219.683 11.6694 220.101 11.376 220.574 11.1366C221.047 10.8972 221.56 10.7208 222.114 10.6038C222.664 10.4886 223.218 10.431 223.769 10.431C224.934 10.431 225.944 10.6128 226.802 10.9764C227.617 11.3102 228.348 11.8131 228.947 12.4506C229.519 13.0698 229.942 13.788 230.219 14.6052C230.494 15.4224 230.633 16.2864 230.633 17.1936C230.633 18.1026 230.494 18.9648 230.219 19.7838C229.944 20.601 229.519 21.3192 228.947 21.9384C228.35 22.5747 227.618 23.0738 226.802 23.4C225.944 23.7546 224.932 23.9328 223.769 23.9328C222.526 23.9328 221.417 23.6934 220.44 23.2128C219.465 22.7358 218.759 22.05 218.326 21.1572H218.266V23.5872H216.55V5.89502V5.89682ZM228.769 17.1936C228.769 16.533 228.675 15.8778 228.488 15.2244C228.311 14.5914 228.009 13.9984 227.601 13.4784C227.182 12.9549 226.651 12.5278 226.046 12.2274C225.416 11.9034 224.657 11.7432 223.769 11.7432C222.783 11.7432 221.949 11.9052 221.269 12.2274C220.59 12.5496 220.037 12.9654 219.613 13.4784C219.188 13.9922 218.876 14.5866 218.697 15.2244C218.325 16.5119 218.325 17.8753 218.697 19.1628C218.884 19.8162 219.188 20.3976 219.613 20.9088C220.035 21.4218 220.589 21.8394 221.269 22.1616C221.949 22.4838 222.783 22.644 223.769 22.644C224.657 22.644 225.416 22.482 226.046 22.1616C226.651 21.8612 227.182 21.4342 227.601 20.9106C228.004 20.3976 228.301 19.8162 228.488 19.1646C228.674 18.5234 228.768 17.8602 228.769 17.1936ZM243.564 16.3026C243.546 15.7156 243.421 15.1364 243.195 14.5926C242.972 14.0535 242.645 13.5616 242.233 13.1436C241.802 12.7116 241.29 12.3667 240.724 12.1284C240.088 11.8634 239.403 11.7322 238.713 11.7432C237.943 11.7432 237.265 11.8728 236.672 12.1284C236.106 12.366 235.593 12.711 235.164 13.1436C234.746 13.5686 234.411 14.0636 234.172 14.6052C233.929 15.1458 233.765 15.7172 233.684 16.3026H243.566H243.564ZM233.682 17.6166C233.682 18.1764 233.778 18.7596 233.965 19.3626C234.152 19.9638 234.452 20.5056 234.867 20.9844C235.281 21.4632 235.803 21.8592 236.434 22.1724C237.067 22.4874 237.826 22.644 238.713 22.644C240.073 22.644 241.138 22.347 241.908 21.753C242.678 21.159 243.21 20.3652 243.505 19.3734H245.37C244.976 20.8278 244.251 21.951 243.195 22.743C242.139 23.535 240.647 23.931 238.713 23.931C237.51 23.931 236.469 23.7546 235.593 23.4C234.771 23.0837 234.037 22.5832 233.448 21.9384C232.891 21.3114 232.472 20.5777 232.219 19.7838C231.95 18.9461 231.815 18.0722 231.82 17.1936C231.82 16.3512 231.953 15.5268 232.219 14.7168C232.478 13.9215 232.895 13.1847 233.448 12.5496C234.037 11.8865 234.77 11.3613 235.593 11.0124C236.469 10.6254 237.51 10.431 238.713 10.431C239.936 10.431 240.981 10.638 241.848 11.0502C242.717 11.4642 243.421 12.0042 243.964 12.6738C244.506 13.3416 244.897 14.1102 245.133 14.9778C245.37 15.8436 245.469 16.7238 245.428 17.6148H233.684L233.682 17.6166ZM249.959 10.8036H253.064V12.1158H249.959V20.7378C249.959 21.249 250.043 21.6486 250.21 21.9384C250.378 22.2264 250.796 22.3884 251.467 22.4208C251.999 22.4208 252.531 22.3956 253.064 22.347V23.661C252.789 23.661 252.514 23.6682 252.237 23.6844C251.961 23.7011 251.685 23.7095 251.409 23.7096C250.166 23.7096 249.299 23.508 248.805 23.103C248.31 22.698 248.076 21.951 248.094 20.8602V12.1158H245.432V10.8H248.094V6.96422H249.959V10.8054V10.8036ZM257.772 10.8036H260.878V12.1158H257.772V20.7378C257.772 21.249 257.857 21.6486 258.023 21.9384C258.192 22.2264 258.61 22.3884 259.281 22.4208C259.813 22.4208 260.344 22.3956 260.878 22.347V23.661C260.603 23.661 260.328 23.6682 260.051 23.6844C259.775 23.7011 259.499 23.7095 259.222 23.7096C257.979 23.7096 257.112 23.508 256.619 23.103C256.124 22.698 255.889 21.951 255.908 20.8602V12.1158H253.246V10.8H255.908V6.96422H257.772V10.8054V10.8036ZM262.656 5.89682H264.521V8.39882H262.656V5.89682ZM262.656 10.8036H264.521V23.5854H262.656V10.8036ZM267.13 10.8036H268.992V13.0068H269.051C269.407 12.2328 270.037 11.6082 270.945 11.1366C271.866 10.6626 272.893 10.4202 273.933 10.431C274.996 10.431 275.889 10.5462 276.61 10.7784C277.33 11.0088 277.906 11.3364 278.34 11.7558C278.775 12.177 279.079 12.6936 279.257 13.3038C279.435 13.9158 279.523 14.5998 279.523 15.3612V23.5872H277.66V15.606C277.66 15.0624 277.602 14.5548 277.482 14.0832C277.374 13.633 277.162 13.2135 276.861 12.8574C276.537 12.4915 276.126 12.2106 275.664 12.0402C275.16 11.8422 274.534 11.7414 273.785 11.7414C273.103 11.7296 272.425 11.8432 271.786 12.0762C271.235 12.2807 270.733 12.5931 270.309 12.9942C269.9 13.3882 269.577 13.8598 269.361 14.3802C269.13 14.9353 269.006 15.527 268.992 16.1262V23.5836H267.128V10.8036H267.13ZM295 22.545C295 23.4864 294.877 24.3378 294.63 25.0974C294.384 25.857 293.993 26.5014 293.462 27.0288C292.93 27.558 292.233 27.963 291.375 28.242C290.517 28.5228 289.469 28.6632 288.226 28.6632C287.456 28.6632 286.706 28.5912 285.976 28.4418C285.289 28.3078 284.626 28.0736 284.009 27.747C283.447 27.4493 282.954 27.0405 282.561 26.5464C282.169 26.0412 281.937 25.4341 281.893 24.8004H283.758C283.857 25.2792 284.049 25.6788 284.335 26.001C284.621 26.3232 284.966 26.5824 285.369 26.7804C285.775 26.9784 286.224 27.1224 286.717 27.2142C287.21 27.3042 287.712 27.351 288.226 27.351C289.96 27.351 291.214 26.937 291.984 26.1126C292.752 25.2864 293.135 24.0966 293.135 22.545V20.8116H293.077C292.642 21.6036 292.008 22.239 291.17 22.7196C290.33 23.1966 289.35 23.4378 288.226 23.4378C287.003 23.4378 285.956 23.2668 285.091 22.9284C284.278 22.6262 283.545 22.1482 282.946 21.5298C282.381 20.9316 281.961 20.216 281.717 19.4364C281.461 18.6354 281.332 17.7804 281.332 16.8714C281.332 15.9966 281.485 15.1668 281.791 14.382C282.097 13.5972 282.541 12.9132 283.122 12.3264C283.703 11.7396 284.423 11.277 285.281 10.9404C286.139 10.6002 287.12 10.431 288.226 10.431C288.798 10.431 289.335 10.4976 289.839 10.629C290.776 10.8713 291.632 11.349 292.323 12.015C292.648 12.33 292.899 12.6612 293.077 13.0068H293.135V10.8036H295V22.545ZM288.226 22.1238C289.032 22.1238 289.744 21.9798 290.356 21.6918C290.939 21.4223 291.459 21.0379 291.884 20.5626C292.308 20.0872 292.629 19.5311 292.826 18.9288C293.033 18.3168 293.137 17.6904 293.137 17.046C293.137 16.4178 293.047 15.7896 292.87 15.1632C292.697 14.5449 292.406 13.9645 292.012 13.4532C291.607 12.9325 291.086 12.509 290.49 12.2148C289.867 11.9016 289.113 11.7432 288.226 11.7432C287.338 11.7432 286.578 11.8962 285.947 12.2022C285.348 12.4837 284.818 12.8881 284.392 13.388C283.966 13.8879 283.654 14.4718 283.477 15.1002C283.29 15.7319 283.195 16.3864 283.195 17.0442C283.195 17.6904 283.294 18.3168 283.492 18.9288C283.688 19.5408 283.994 20.0808 284.409 20.5506C284.823 21.0222 285.346 21.402 285.976 21.69C286.609 21.978 287.357 22.1238 288.226 22.1238ZM166.828 42.1992C166.887 41.4396 167.074 40.7808 167.389 40.2228C167.706 39.6648 168.135 39.2094 168.676 38.8548C169.259 38.4827 169.905 38.2163 170.584 38.0682C171.314 37.9008 172.124 37.8162 173.01 37.8162C173.681 37.8162 174.352 37.8702 175.023 37.98C175.694 38.0898 176.295 38.2968 176.827 38.601C177.359 38.9052 177.793 39.3318 178.129 39.8808C178.464 40.4298 178.633 41.1444 178.633 42.0228V48.9654C178.633 49.608 178.998 49.9284 179.727 49.9284C179.929 49.931 180.129 49.8969 180.318 49.8276V51.1704C179.917 51.2416 179.511 51.2754 179.104 51.2712C178.718 51.2846 178.333 51.2291 177.967 51.1074C177.705 51.0152 177.474 50.8532 177.3 50.6394C177.137 50.4268 177.03 50.1784 176.988 49.9158C176.937 49.61 176.912 49.3005 176.915 48.9906H176.856C176.543 49.3893 176.203 49.7664 175.837 50.1192C175.494 50.4464 175.105 50.7235 174.682 50.9418C174.224 51.1736 173.737 51.3443 173.234 51.4494C172.596 51.5765 171.946 51.6356 171.296 51.6258C170.584 51.6258 169.921 51.5538 169.297 51.4098C168.717 51.2832 168.165 51.0512 167.671 50.7258C167.215 50.4209 166.839 50.0129 166.577 49.536C166.299 49.0081 166.162 48.4199 166.177 47.826C166.177 46.9134 166.414 46.1988 166.887 45.684C167.36 45.1692 167.987 44.7768 168.766 44.505C169.545 44.235 170.421 44.046 171.398 43.9362C172.376 43.8264 173.366 43.7202 174.372 43.6194C174.719 43.5895 175.064 43.5475 175.408 43.4934C175.703 43.4412 175.949 43.353 176.147 43.2252C176.345 43.0971 176.504 42.9177 176.605 42.7068C176.715 42.4872 176.768 42.1992 176.768 41.8446C176.768 41.3046 176.664 40.86 176.457 40.5144C176.251 40.1691 175.955 39.8844 175.599 39.69C175.204 39.4776 174.774 39.3361 174.328 39.2724C173.814 39.1942 173.294 39.1563 172.773 39.159C171.591 39.159 170.625 39.4002 169.875 39.8808C169.125 40.3632 168.731 41.1354 168.691 42.1992H166.828ZM176.768 44.1252H176.71C176.59 44.3106 176.363 44.4474 176.028 44.5302C175.736 44.6064 175.439 44.6659 175.14 44.7084C174.352 44.8272 173.538 44.9316 172.7 45.0252C171.926 45.1067 171.16 45.2463 170.408 45.4428C169.792 45.5936 169.213 45.8655 168.707 46.242C168.262 46.5876 168.04 47.0826 168.04 47.7234C168.04 48.1302 168.135 48.4884 168.322 48.8016C168.509 49.113 168.762 49.3848 169.076 49.6116C169.391 49.8402 169.756 50.013 170.17 50.1318C170.584 50.2506 171.01 50.3082 171.442 50.3082C172.154 50.3082 172.834 50.2164 173.485 50.031C174.136 49.8438 174.702 49.5738 175.186 49.2192C175.66 48.8744 176.053 48.4336 176.339 47.9268C176.625 47.4192 176.768 46.8468 176.768 46.2042V44.1252ZM190.417 42.0228C190.41 41.574 190.288 41.1341 190.064 40.743C189.848 40.3807 189.549 40.0726 189.191 39.843C188.806 39.598 188.38 39.4219 187.933 39.3228C187.438 39.2109 186.932 39.156 186.424 39.159C186.01 39.159 185.59 39.195 185.167 39.2724C184.76 39.3424 184.366 39.4704 183.997 39.6522C183.643 39.8304 183.355 40.0626 183.139 40.3488C182.915 40.6595 182.801 41.0339 182.815 41.4144C182.815 41.769 182.917 42.0678 183.126 42.3144C183.332 42.5592 183.594 42.7644 183.909 42.9354C184.224 43.1028 184.569 43.2414 184.945 43.353C185.319 43.461 185.664 43.551 185.981 43.6194L188.465 44.1C188.997 44.1684 189.525 44.2908 190.047 44.4672C190.571 44.6454 191.033 44.8776 191.439 45.1638C191.842 45.4518 192.172 45.8064 192.429 46.2294C192.685 46.6506 192.814 47.1492 192.814 47.7234C192.814 48.4344 192.627 49.0374 192.253 49.536C191.871 50.0403 191.381 50.4558 190.817 50.7528C190.201 51.0769 189.538 51.3035 188.85 51.4242C188.12 51.5592 187.402 51.6258 186.69 51.6258C184.894 51.6258 183.442 51.264 182.327 50.5368C181.212 49.8096 180.576 48.645 180.418 47.0394H182.281C182.362 48.1194 182.82 48.9366 183.656 49.4856C184.496 50.0346 185.537 50.3082 186.778 50.3082C187.233 50.3082 187.7 50.2668 188.184 50.1822C188.667 50.0976 189.116 49.9536 189.53 49.7502C189.922 49.5659 190.27 49.3029 190.551 48.978C190.822 48.6539 190.964 48.2448 190.951 47.826C190.963 47.4798 190.864 47.1386 190.669 46.8504C190.47 46.5787 190.213 46.3537 189.915 46.1916C189.573 46.003 189.21 45.8539 188.833 45.747C188.429 45.6287 188.02 45.5272 187.607 45.4428L185.211 44.9874C184.64 44.8638 184.076 44.7076 183.524 44.5194C183.047 44.3593 182.595 44.1371 182.178 43.8588C181.806 43.6102 181.498 43.2806 181.276 42.8958C181.058 42.5178 180.95 42.048 180.95 41.49C180.95 40.8312 181.122 40.266 181.469 39.7926C181.814 39.3192 182.263 38.9394 182.815 38.6514C183.397 38.3532 184.02 38.1398 184.664 38.0178C185.343 37.8828 186.021 37.8162 186.69 37.8162C187.46 37.8162 188.175 37.9008 188.835 38.0682C189.495 38.2374 190.078 38.5002 190.581 38.8548C191.083 39.2094 191.483 39.6486 191.778 40.1724C192.075 40.6944 192.242 41.3118 192.282 42.0228H190.417ZM203.564 42.0228C203.556 41.574 203.435 41.1341 203.21 40.743C202.994 40.3805 202.695 40.0724 202.336 39.843C201.952 39.5982 201.527 39.4221 201.08 39.3228C200.585 39.2109 200.079 39.156 199.571 39.159C199.157 39.159 198.737 39.195 198.314 39.2724C197.907 39.3424 197.513 39.4704 197.144 39.6522C196.79 39.8304 196.502 40.0626 196.286 40.3488C196.062 40.6595 195.948 41.0339 195.961 41.4144C195.961 41.769 196.064 42.0678 196.273 42.3144C196.478 42.5592 196.741 42.7644 197.056 42.9354C197.371 43.1028 197.716 43.2414 198.092 43.353C198.466 43.461 198.81 43.551 199.128 43.6194L201.612 44.1C202.143 44.1684 202.671 44.2908 203.194 44.4672C203.718 44.6454 204.18 44.8776 204.585 45.1638C204.989 45.4518 205.319 45.8064 205.575 46.2294C205.832 46.6506 205.96 47.1492 205.96 47.7234C205.96 48.4344 205.773 49.0374 205.399 49.536C205.018 50.0403 204.528 50.4558 203.964 50.7528C203.348 51.0769 202.684 51.3035 201.997 51.4242C201.267 51.5592 200.548 51.6258 199.837 51.6258C198.04 51.6258 196.587 51.264 195.474 50.5368C194.359 49.8096 193.723 48.645 193.565 47.0394H195.428C195.507 48.1194 195.967 48.9366 196.803 49.4856C197.643 50.0346 198.684 50.3082 199.925 50.3082C200.38 50.3082 200.847 50.2668 201.331 50.1822C201.813 50.0976 202.263 49.9536 202.677 49.7502C203.069 49.5659 203.417 49.3029 203.698 48.978C203.968 48.6539 204.11 48.2448 204.098 47.826C204.11 47.4798 204.011 47.1386 203.815 46.8504C203.617 46.5787 203.36 46.3537 203.062 46.1916C202.72 46.003 202.357 45.8539 201.98 45.747C201.576 45.6287 201.167 45.5272 200.754 45.4428L198.358 44.9874C197.786 44.8638 197.223 44.7076 196.671 44.5194C196.194 44.3593 195.742 44.1371 195.325 43.8588C194.953 43.6102 194.644 43.2806 194.423 42.8958C194.205 42.5178 194.097 42.048 194.097 41.49C194.097 40.8312 194.269 40.266 194.616 39.7926C194.96 39.3192 195.41 38.9394 195.961 38.6514C196.513 38.3634 197.129 38.1528 197.809 38.0178C198.491 37.8828 199.166 37.8162 199.837 37.8162C200.607 37.8162 201.322 37.9008 201.982 38.0682C202.642 38.2374 203.225 38.5002 203.727 38.8548C204.23 39.2094 204.629 39.6486 204.925 40.1724C205.222 40.6944 205.388 41.3118 205.429 42.0228H203.564ZM214.02 39.159C213.132 39.159 212.351 39.3192 211.682 39.6396C211.039 39.94 210.469 40.372 210.01 40.9068C209.563 41.4354 209.222 42.0417 209.004 42.6942C208.551 44.0175 208.551 45.4498 209.004 46.773C209.231 47.4408 209.567 48.0366 210.012 48.5604C210.454 49.0824 211.011 49.5072 211.68 49.8276C212.353 50.148 213.132 50.3082 214.02 50.3082C214.907 50.3082 215.686 50.148 216.355 49.8276C217.026 49.5072 217.584 49.0842 218.027 48.5604C218.471 48.0366 218.807 47.4408 219.034 46.773C219.487 45.4498 219.487 44.0175 219.034 42.6942C218.816 42.0417 218.474 41.4354 218.027 40.9068C217.569 40.3718 216.999 39.9397 216.355 39.6396C215.686 39.3192 214.907 39.159 214.02 39.159ZM214.02 37.8162C215.182 37.8162 216.212 38.0016 217.111 38.3742C218.009 38.745 218.763 39.2436 219.373 39.8682C219.985 40.4928 220.449 41.2236 220.765 42.0606C221.08 42.8958 221.238 43.7886 221.238 44.7336C221.244 45.6452 221.084 46.5505 220.765 47.4066C220.461 48.2244 219.987 48.9711 219.373 49.599C218.733 50.2434 217.962 50.7487 217.111 51.0822C216.212 51.4458 215.182 51.6258 214.02 51.6258C212.856 51.6258 211.825 51.4458 210.927 51.0822C210.075 50.7487 209.305 50.2434 208.665 49.599C208.051 48.9709 207.577 48.2243 207.273 47.4066C206.954 46.5505 206.794 45.6452 206.8 44.7336C206.8 43.7868 206.958 42.8976 207.273 42.0606C207.59 41.2236 208.052 40.4946 208.665 39.8682C209.306 39.2233 210.076 38.7147 210.927 38.3742C211.825 38.0016 212.856 37.8162 214.02 37.8162ZM233.704 42.3018C233.448 41.3208 232.975 40.5522 232.283 39.9942C231.594 39.4362 230.628 39.159 229.385 39.159C228.498 39.159 227.717 39.3192 227.047 39.6396C226.404 39.94 225.834 40.372 225.375 40.9068C224.929 41.4355 224.589 42.0418 224.371 42.6942C223.918 44.0175 223.918 45.4498 224.371 46.773C224.596 47.4408 224.932 48.0366 225.375 48.5604C225.819 49.0824 226.376 49.5072 227.047 49.8276C227.718 50.148 228.496 50.3082 229.385 50.3082C229.957 50.3082 230.5 50.2164 231.011 50.031C231.524 49.8438 231.979 49.5864 232.373 49.257C232.767 48.9276 233.092 48.5352 233.349 48.078C233.605 47.6226 233.763 47.124 233.822 46.584H235.686C235.429 48.1716 234.751 49.41 233.646 50.2956C232.54 51.183 231.121 51.6276 229.385 51.6276C228.221 51.6276 227.19 51.4458 226.294 51.0822C225.442 50.7489 224.67 50.2436 224.03 49.599C223.417 48.9707 222.943 48.2241 222.64 47.4066C222.32 46.5506 222.16 45.6453 222.165 44.7336C222.165 43.7868 222.325 42.8976 222.64 42.0606C222.955 41.2236 223.419 40.4946 224.03 39.8682C224.672 39.2231 225.443 38.7145 226.294 38.3742C227.192 38.0016 228.221 37.8162 229.385 37.8162C231.022 37.8162 232.408 38.187 233.541 38.9322C234.676 39.6738 235.351 40.797 235.569 42.3018H233.704ZM237.235 33.1776H239.1V35.7372H237.235V33.1776ZM237.235 38.196H239.1V51.2712H237.235V38.196ZM241.419 42.1992C241.478 41.4396 241.665 40.7808 241.98 40.2228C242.295 39.6648 242.724 39.2094 243.267 38.8548C243.85 38.4827 244.496 38.2163 245.175 38.0682C245.905 37.9008 246.715 37.8162 247.601 37.8162C248.272 37.8162 248.943 37.8702 249.614 37.98C250.285 38.0898 250.886 38.2968 251.418 38.601C251.95 38.9052 252.384 39.3318 252.72 39.8808C253.055 40.4298 253.222 41.1444 253.222 42.0228V48.9654C253.222 49.608 253.589 49.9284 254.318 49.9284C254.52 49.931 254.72 49.8969 254.909 49.8276V51.1704C254.508 51.2416 254.102 51.2754 253.695 51.2712C253.309 51.2846 252.924 51.2291 252.558 51.1074C252.296 51.0152 252.065 50.8532 251.891 50.6394C251.728 50.4268 251.621 50.1784 251.579 49.9158C251.528 49.61 251.503 49.3005 251.506 48.9906H251.447C251.134 49.3893 250.792 49.7664 250.426 50.1192C250.084 50.4463 249.695 50.7233 249.273 50.9418C248.815 51.1736 248.328 51.3443 247.825 51.4494C247.186 51.5766 246.536 51.6357 245.885 51.6258C245.175 51.6258 244.51 51.5538 243.888 51.4098C243.308 51.2832 242.756 51.0512 242.262 50.7258C241.806 50.4209 241.43 50.0129 241.168 49.536C240.89 49.0081 240.753 48.4199 240.768 47.826C240.768 46.9134 241.005 46.1988 241.478 45.684C241.951 45.1692 242.578 44.7768 243.357 44.505C244.136 44.235 245.012 44.046 245.989 43.9362C246.965 43.8264 247.957 43.7202 248.963 43.6194C249.31 43.5895 249.655 43.5475 249.999 43.4934C250.292 43.4412 250.54 43.353 250.738 43.2252C250.936 43.0971 251.095 42.9177 251.196 42.7068C251.306 42.4872 251.359 42.1992 251.359 41.8446C251.359 41.3046 251.255 40.86 251.048 40.5144C250.842 40.1691 250.546 39.8844 250.19 39.69C249.795 39.4776 249.365 39.3361 248.919 39.2724C248.405 39.1942 247.885 39.1563 247.364 39.159C246.182 39.159 245.216 39.4002 244.466 39.8808C243.716 40.3632 243.322 41.1354 243.282 42.1992H241.419ZM251.359 44.1252H251.301C251.181 44.3106 250.954 44.4474 250.619 44.5302C250.283 44.6148 249.988 44.6742 249.731 44.7084C248.943 44.8272 248.129 44.9316 247.291 45.0252C246.517 45.1067 245.751 45.2463 244.999 45.4428C244.382 45.5934 243.803 45.8652 243.296 46.242C242.853 46.5876 242.631 47.0826 242.631 47.7234C242.631 48.1302 242.724 48.4884 242.913 48.8016C243.105 49.1194 243.362 49.3951 243.667 49.6116C243.982 49.8402 244.347 50.013 244.761 50.1318C245.175 50.2506 245.599 50.3082 246.033 50.3082C246.743 50.3082 247.425 50.2164 248.076 50.031C248.687 49.863 249.263 49.588 249.775 49.2192C250.25 48.8745 250.644 48.4338 250.93 47.9268C251.216 47.4192 251.359 46.8468 251.359 46.2042V44.1252ZM258.825 38.196H261.932V39.5388H258.825V48.3588C258.825 48.8808 258.909 49.2912 259.078 49.5864C259.244 49.8816 259.664 50.0472 260.333 50.0814C260.865 50.0814 261.399 50.0562 261.932 50.004V51.3486C261.657 51.3486 261.38 51.3558 261.103 51.3738C260.827 51.3912 260.551 51.3996 260.275 51.399C259.032 51.399 258.166 51.192 257.671 50.778C257.178 50.364 256.942 49.599 256.962 48.4848V39.5388H254.298V38.196H256.962V34.2684H258.825V38.196ZM263.569 33.1776H265.434V35.7372H263.569V33.1776ZM263.569 38.196H265.434V51.2712H263.569V38.196ZM274.38 39.159C273.493 39.159 272.712 39.3192 272.043 39.6396C271.4 39.94 270.83 40.372 270.371 40.9068C269.924 41.4354 269.583 42.0417 269.364 42.6942C268.912 44.0175 268.912 45.4498 269.364 46.773C269.592 47.4408 269.927 48.0366 270.373 48.5604C270.815 49.0824 271.372 49.5072 272.041 49.8276C272.714 50.148 273.493 50.3082 274.38 50.3082C275.268 50.3082 276.047 50.148 276.716 49.8276C277.387 49.5072 277.944 49.0842 278.388 48.5604C278.832 48.0366 279.167 47.4408 279.395 46.773C279.847 45.4498 279.847 44.0175 279.395 42.6942C279.176 42.0417 278.835 41.4354 278.388 40.9068C277.93 40.3718 277.359 39.9397 276.716 39.6396C276.047 39.3192 275.268 39.159 274.38 39.159ZM274.38 37.8162C275.543 37.8162 276.573 38.0016 277.471 38.3742C278.37 38.745 279.121 39.2436 279.734 39.8682C280.346 40.4928 280.81 41.2236 281.125 42.0606C281.441 42.8958 281.598 43.7886 281.598 44.7336C281.604 45.6452 281.444 46.5505 281.125 47.4066C280.822 48.2244 280.348 48.9711 279.734 49.599C279.094 50.2434 278.323 50.7487 277.471 51.0822C276.573 51.4458 275.543 51.6258 274.38 51.6258C273.216 51.6258 272.186 51.4458 271.288 51.0822C270.436 50.7487 269.665 50.2434 269.025 49.599C268.411 48.9709 267.938 48.2243 267.634 47.4066C267.315 46.5505 267.155 45.6452 267.161 44.7336C267.161 43.7868 267.318 42.8976 267.634 42.0606C267.951 41.2236 268.413 40.4946 269.025 39.8682C269.667 39.2233 270.437 38.7147 271.288 38.3742C272.186 38.0016 273.216 37.8162 274.38 37.8162ZM283.267 38.1942H285.129V40.4514H285.19C285.544 39.6576 286.176 39.0186 287.084 38.538C288.002 38.0539 289.03 37.8057 290.072 37.8162C291.135 37.8162 292.028 37.9332 292.749 38.1708C293.467 38.4066 294.045 38.7396 294.479 39.1716C294.912 39.6036 295.218 40.1292 295.396 40.7556C295.574 41.3802 295.662 42.0822 295.662 42.858V51.2712H293.799V43.1118C293.799 42.5538 293.739 42.0354 293.621 41.553C293.514 41.0938 293.301 40.6647 293 40.2984C292.678 39.9257 292.265 39.6385 291.801 39.4632C291.298 39.2598 290.673 39.1572 289.923 39.1572C289.241 39.1451 288.563 39.2612 287.925 39.4992C287.372 39.7103 286.87 40.03 286.447 40.4388C286.037 40.8439 285.715 41.3264 285.5 41.8572C285.268 42.4265 285.143 43.0319 285.129 43.6446V51.2712H283.267V38.196V38.1942ZM68.2275 33.9624H70.092V36.4644H68.2275V33.9624ZM68.2275 38.8674H70.092V51.651H68.2275V38.8674ZM72.9392 38.8674H74.8V41.0724H74.8587C75.2144 40.2984 75.845 39.6738 76.7525 39.2022C77.674 38.7282 78.7007 38.4858 79.7409 38.4966C80.8042 38.4966 81.6989 38.6118 82.4175 38.844C83.138 39.0744 83.7155 39.402 84.1482 39.8214C84.5827 40.2426 84.8889 40.7592 85.0649 41.3694C85.2427 41.9814 85.3325 42.6654 85.3325 43.4268V51.651H83.468V43.6734C83.4721 43.1606 83.4124 42.6492 83.2902 42.1506C83.1821 41.7004 82.9694 41.2809 82.6687 40.9248C82.3451 40.5589 81.9336 40.278 81.4715 40.1076C80.9692 39.9096 80.3422 39.8088 79.5924 39.8088C78.9108 39.797 78.233 39.9106 77.594 40.1436C77.0432 40.3481 76.5405 40.6605 76.1164 41.0616C75.713 41.4486 75.3959 41.9112 75.1704 42.4476C74.9395 43.0026 74.814 43.5943 74.8 44.1936V51.651H72.9355V38.8674H72.9392ZM91.1094 38.8674H94.215V40.1814H91.1094V48.8034C91.1094 49.3146 91.1937 49.7142 91.3605 50.004C91.5292 50.292 91.9472 50.454 92.6182 50.4864C93.1499 50.4864 93.6815 50.4612 94.215 50.4126V51.7266C93.94 51.7266 93.665 51.7338 93.3882 51.75C93.1114 51.768 92.8345 51.7752 92.5595 51.7752C91.3165 51.7752 90.4494 51.5718 89.9562 51.1686C89.4612 50.7636 89.2265 50.0166 89.2449 48.9258V40.1814H86.5829V38.8674H89.2449V35.028H91.1094V38.8674ZM107.18 44.3682C107.162 43.781 107.037 43.2018 106.81 42.6582C106.587 42.1192 106.261 41.6273 105.849 41.2092C105.419 40.7772 104.906 40.4323 104.341 40.194C103.704 39.9288 103.019 39.7976 102.328 39.8088C101.558 39.8088 100.879 39.9366 100.287 40.194C99.6949 40.4496 99.1925 40.788 98.7782 41.2092C98.3618 41.6343 98.0265 42.1294 97.7882 42.6708C97.5449 43.2113 97.3801 43.7827 97.2987 44.3682H107.18ZM97.2987 45.6822C97.2987 46.242 97.3922 46.8252 97.5792 47.4282C97.768 48.0294 98.0687 48.5712 98.483 49.0482C98.8974 49.5288 99.418 49.9248 100.051 50.2398C100.681 50.553 101.44 50.7096 102.328 50.7096C103.69 50.7096 104.755 50.4126 105.523 49.8186C106.293 49.2246 106.825 48.4308 107.122 47.439H108.984C108.59 48.8934 107.866 50.0166 106.81 50.8086C105.756 51.6006 104.262 51.9966 102.328 51.9966C101.125 51.9966 100.085 51.8202 99.2072 51.4656C98.3859 51.1493 97.6514 50.6488 97.0622 50.004C96.5051 49.3765 96.0868 48.6422 95.8339 47.8476C95.5645 47.0105 95.4296 46.1372 95.4342 45.2592C95.4342 44.4168 95.568 43.5924 95.8339 42.7824C96.0926 41.987 96.5101 41.2503 97.0622 40.6152C97.6514 39.9521 98.3843 39.4269 99.2072 39.078C100.085 38.691 101.125 38.4966 102.328 38.4966C103.55 38.4966 104.597 38.7036 105.463 39.1158C106.332 39.5298 107.037 40.0698 107.58 40.7376C108.123 41.4072 108.511 42.1758 108.748 43.0416C108.986 43.9092 109.083 44.7876 109.045 45.6804H97.2987V45.6822ZM123.754 50.6106C123.754 51.552 123.631 52.4016 123.383 53.163C123.138 53.9226 122.747 54.567 122.216 55.0944C121.684 55.6236 120.987 56.0268 120.129 56.3076C119.271 56.5884 118.223 56.7288 116.98 56.7288C116.21 56.7288 115.46 56.6568 114.73 56.5056C114.043 56.3722 113.38 56.1386 112.763 55.8126C112.201 55.5149 111.708 55.1061 111.315 54.612C110.923 54.1067 110.691 53.4996 110.647 52.866H112.512C112.611 53.343 112.803 53.7444 113.089 54.0666C113.375 54.3888 113.72 54.648 114.125 54.846C114.528 55.044 114.978 55.188 115.471 55.2798C115.964 55.3698 116.466 55.4166 116.98 55.4166C118.714 55.4166 119.968 55.0026 120.738 54.1782C121.506 53.352 121.889 52.1622 121.889 50.6106V48.8772H121.831C121.398 49.6692 120.762 50.3046 119.924 50.7852C119.084 51.2622 118.103 51.5016 116.98 51.5016C115.757 51.5016 114.712 51.3324 113.845 50.994C113.032 50.6918 112.299 50.2138 111.7 49.5954C111.135 48.9972 110.715 48.2816 110.471 47.502C110.215 46.701 110.086 45.846 110.086 44.937C110.086 44.0622 110.238 43.2324 110.545 42.4476C110.851 41.6628 111.294 40.9788 111.876 40.392C112.457 39.8052 113.177 39.3426 114.035 39.006C114.893 38.6658 115.874 38.4966 116.98 38.4966C117.552 38.4966 118.089 38.5632 118.593 38.6946C119.095 38.826 119.554 39.0132 119.968 39.2526C120.382 39.492 120.751 39.7674 121.077 40.0806C121.402 40.3956 121.653 40.7268 121.831 41.0724H121.889V38.8674H123.754V50.6106ZM116.98 50.1894C117.786 50.1894 118.498 50.0454 119.11 49.7574C119.693 49.4879 120.213 49.1035 120.637 48.6282C121.062 48.1528 121.383 47.5967 121.579 46.9944C121.787 46.3824 121.891 45.7542 121.891 45.1116C121.891 44.4834 121.801 43.8552 121.623 43.2288C121.451 42.6105 121.159 42.0301 120.765 41.5188C120.36 40.9981 119.84 40.5746 119.244 40.2804C118.62 39.9672 117.867 39.8088 116.98 39.8088C116.092 39.8088 115.331 39.9618 114.701 40.2678C114.07 40.5738 113.546 40.9734 113.133 41.4684C112.719 41.9652 112.418 42.5304 112.231 43.1658C112.044 43.7975 111.949 44.452 111.949 45.1098C111.949 45.7542 112.048 46.3824 112.246 46.9944C112.442 47.6064 112.748 48.1464 113.163 48.6162C113.577 49.0878 114.099 49.4676 114.73 49.7556C115.363 50.0436 116.111 50.1894 116.98 50.1894ZM126.601 38.8674H128.317V41.8662H128.376C128.825 40.8516 129.599 40.0082 130.579 39.4632C131.577 38.9016 132.765 38.646 134.145 38.6946V40.2552C133.365 40.2134 132.583 40.3097 131.837 40.5396C131.148 40.7628 130.55 41.0796 130.048 41.4936C129.543 41.9076 129.155 42.399 128.878 42.9696C128.599 43.554 128.457 44.1926 128.464 44.838V51.651H126.601V38.8674ZM135.245 33.9624H137.11V36.4644H135.245V33.9624ZM135.245 38.8674H137.11V51.651H135.245V38.8674ZM142.945 38.8674H146.051V40.1814H142.943V48.8034C142.943 49.3146 143.028 49.7142 143.196 50.004C143.363 50.292 143.783 50.454 144.452 50.4864C144.984 50.4864 145.517 50.4612 146.051 50.4126V51.7266C145.776 51.7266 145.499 51.7338 145.222 51.75C144.946 51.7667 144.67 51.7751 144.393 51.7752C143.15 51.7752 142.283 51.5718 141.79 51.1686C141.297 50.7636 141.06 50.0166 141.081 48.9258V40.1814H138.417V38.8674H141.081V35.028H142.943V38.8674H142.945ZM146.324 38.8674H148.304L153.335 49.7682L158.039 38.8674H159.902L153.276 53.5824C153.001 54.1278 152.744 54.5778 152.506 54.9324C152.299 55.2575 152.034 55.5429 151.723 55.7748C151.421 55.9887 151.078 56.1405 150.715 56.2212C150.234 56.3217 149.743 56.3676 149.252 56.358C148.878 56.34 148.586 56.3292 148.379 56.322C148.194 56.3167 148.01 56.287 147.833 56.2338V54.9198C148.049 54.954 148.262 54.9828 148.467 55.008C148.674 55.0332 148.889 55.044 149.103 55.044C149.518 55.044 149.859 54.9954 150.124 54.8964C150.643 54.7098 151.071 54.3384 151.323 53.856C151.461 53.6076 151.609 53.334 151.767 53.0388L152.418 51.6006L146.324 38.8674Z" fill="#7C7C7C"/>
</svg>
