<svg width="63" height="62" viewBox="0 0 63 62" fill="none" xmlns="http://www.w3.org/2000/svg">
<g clip-path="url(#clip0_23_1018)">
<path d="M31.6285 62C14.5761 62 0.674805 48.0778 0.674805 31C0.674805 13.9221 14.5761 0 31.6285 0C34.9648 0 38.3011 0.556898 41.4521 1.57786C42.8422 2.04193 43.5836 3.52693 43.1202 4.91915C42.6569 6.31137 41.1741 7.0539 39.7839 6.58983C37.189 5.66168 34.4087 5.29043 31.6285 5.29043C17.4491 5.19762 5.86465 16.7994 5.86465 31C5.86465 45.2006 17.4491 56.8024 31.6285 56.8024C45.8078 56.8024 57.3923 45.2006 57.3923 31C57.3923 28.7724 57.1143 26.5449 56.5582 24.4102C56.1875 23.018 57.0216 21.6257 58.4117 21.2545C59.8018 20.8832 61.192 21.7186 61.5627 23.1108C62.2114 25.7096 62.5821 28.4012 62.5821 31.0928C62.5821 48.0778 48.6808 62 31.6285 62Z" fill="#7C7C7C"/>
<path d="M26.4386 44.4581H21.3415V25.1527C19.4879 26.9162 17.2637 28.2156 14.7615 29.0509V24.4102C16.059 23.9461 17.5418 23.1108 19.1172 21.9042C20.6927 20.6976 21.7122 19.3054 22.3609 17.6348H26.5313V44.4581H26.4386Z" fill="#7C7C7C" stroke="#7C7C7C" stroke-miterlimit="10"/>
<path d="M34.1307 29.9791C32.8332 29.4222 31.8138 28.6797 31.2577 27.6588C30.7017 26.6378 30.331 25.6168 30.331 24.4102C30.331 22.4611 30.9797 20.7905 32.3699 19.4911C33.76 18.1917 35.7062 17.542 38.3011 17.542C40.8033 17.542 42.8422 18.1917 44.2323 19.4911C45.6225 20.7905 46.3639 22.4611 46.3639 24.4102C46.3639 25.6168 46.0858 26.7306 45.4371 27.7516C44.7884 28.6797 43.8616 29.4222 42.7495 29.9791C44.2323 30.536 45.3444 31.4642 46.0858 32.5779C46.8273 33.6917 47.198 34.9911 47.198 36.5689C47.198 39.0749 46.4566 41.024 44.8811 42.6019C43.3056 44.1797 41.2667 44.9222 38.5791 44.9222C36.1696 44.9222 34.1307 44.2725 32.5552 42.9731C30.609 41.4881 29.6823 39.4462 29.6823 36.7546C29.6823 35.2695 30.053 33.9701 30.7944 32.7635C31.4431 31.6498 32.5552 30.7216 34.1307 29.9791ZM34.6868 36.2905C34.6868 37.6827 35.0574 38.7965 35.7988 39.6318C36.5403 40.4672 37.3743 40.8384 38.4864 40.8384C39.5059 40.8384 40.4326 40.4671 41.0814 39.7246C41.7301 38.9821 42.1008 37.8683 42.1008 36.4761C42.1008 35.2695 41.7301 34.2486 41.0814 33.5061C40.34 32.7636 39.5059 32.3923 38.3938 32.3923C37.189 32.3923 36.1696 32.8564 35.6135 33.6917C34.9648 34.3414 34.6868 35.2695 34.6868 36.2905ZM35.1501 24.8743C35.1501 25.8953 35.4282 26.7306 35.9842 27.2875C36.5403 27.8444 37.2817 28.1228 38.3011 28.1228C39.2279 28.1228 40.0619 27.8444 40.618 27.2875C41.174 26.7306 41.4521 25.8953 41.4521 24.8743C41.4521 23.9462 41.174 23.1108 40.618 22.554C40.0619 21.9971 39.3205 21.7186 38.3011 21.7186C37.2817 21.7186 36.5403 21.9971 35.9842 22.554C35.4282 23.1108 35.1501 23.9462 35.1501 24.8743Z" fill="#7C7C7C" stroke="#7C7C7C" stroke-miterlimit="10"/>
<path d="M60.0799 7.42493H56.8363V4.17643C56.8363 2.6914 55.6315 1.57764 54.2413 1.57764C52.7585 1.57764 51.6464 2.78421 51.6464 4.17643V7.42493H48.4028C46.92 7.42493 45.8079 8.63151 45.8079 10.0237C45.8079 11.4159 47.0126 12.6225 48.4028 12.6225H51.6464V15.871C51.6464 17.3561 52.8512 18.4698 54.2413 18.4698C55.7241 18.4698 56.8363 17.2633 56.8363 15.871V12.6225H60.0799C61.5627 12.6225 62.6748 11.4159 62.6748 10.0237C62.6748 8.63151 61.47 7.42493 60.0799 7.42493Z" fill="#7C7C7C"/>
</g>
<defs>
<clipPath id="clip0_23_1018">
<rect width="62" height="62" fill="white" transform="translate(0.674805)"/>
</clipPath>
</defs>
</svg>
