<svg width="157" height="51" viewBox="0 0 157 51" fill="none" xmlns="http://www.w3.org/2000/svg">
<g clip-path="url(#clip0_23_974)">
<path fill-rule="evenodd" clip-rule="evenodd" d="M23.6448 37.8521C26.6644 37.8521 28.1825 39.3574 28.1825 39.3574L26.7299 42.0872C26.7299 42.0872 25.669 41.0117 23.9223 41.0117C21.7354 41.0117 20.8538 42.3685 20.8538 43.9067C20.8538 45.7102 22.0288 47.0003 23.8079 47.0003C24.9015 47.0003 25.7504 46.4213 25.8648 46.2724V45.743H24.3792V43.1956H28.7865V49.8786H25.979V49.366C25.979 49.1839 25.9952 49.0186 26.0117 48.9855H25.9462C25.7993 49.1839 24.8691 50.0774 22.9918 50.0774C19.8253 50.0774 17.2301 47.6786 17.2301 43.9896C17.2301 40.5155 19.7601 37.8521 23.6448 37.8521ZM35.8224 37.8521C39.5768 37.8521 42.0902 40.4494 42.0902 43.8903C42.0902 47.414 39.5768 50.0774 35.8224 50.0774C32.0685 50.0774 29.5546 47.414 29.5546 43.8903C29.5546 40.4494 32.0685 37.8521 35.8224 37.8521ZM71.5724 37.8521C75.3268 37.8521 77.8406 40.4494 77.8406 43.8903C77.8406 47.414 75.3268 50.0774 71.5724 50.0774C67.8184 50.0774 65.305 47.414 65.305 43.8903C65.305 40.4494 67.8184 37.8521 71.5724 37.8521ZM114.293 37.8521C118.047 37.8521 120.561 40.4494 120.561 43.8903C120.561 47.414 118.047 50.0774 114.293 50.0774C110.539 50.0774 108.025 47.414 108.025 43.8903C108.025 40.4494 110.539 37.8521 114.293 37.8521ZM127.401 37.8521C131.155 37.8521 133.669 40.4494 133.669 43.8903C133.669 47.414 131.155 50.0774 127.401 50.0774C123.647 50.0774 121.133 47.414 121.133 43.8903C121.133 40.4494 123.647 37.8521 127.401 37.8521ZM48.2942 38.0509C50.857 38.0509 52.6036 39.4567 52.6036 41.9384C52.6036 43.2945 51.9179 44.5686 50.8245 45.2468V45.2797C50.857 45.3461 51.0856 45.6438 51.3303 46.0904L53.3704 49.8786H49.5347L47.7229 46.1732H46.7437V49.8786H43.218V38.0509H48.2942ZM58.7907 38.0509C62.3982 38.0509 64.6996 40.2181 64.6996 43.9399C64.6996 47.6621 62.3982 49.8786 58.7907 49.8786H54.0572V38.0509H58.7907ZM82.3468 38.0509L85.2199 42.8976C85.521 43.3965 85.7665 43.9643 85.9109 44.3273L85.9995 44.5568C86.0336 44.6481 86.0518 44.701 86.0518 44.701H86.1173C86.1173 44.701 85.9867 43.6422 85.9867 42.8976V38.0509H89.3983V49.8786H85.9705L83.0815 44.8002C82.6571 44.0888 82.2489 43.0136 82.2489 43.0136H82.1837C82.1837 43.0136 82.3144 44.0556 82.3144 44.8002V49.8786H78.9845V38.0509H82.3468ZM98.5567 38.0509L100.026 42.8151C100.254 43.5758 100.515 44.7174 100.515 44.7174H100.581C100.581 44.7174 100.825 43.5758 101.07 42.8151L102.539 38.0509H106.375L107.24 49.8786H103.959L103.633 44.9491C103.568 44.0556 103.633 43.0464 103.633 43.0464H103.568C103.568 43.0464 103.274 44.2045 103.029 44.9491L101.968 48.3072H99.128L98.0506 44.9491C97.822 44.2045 97.5282 43.0464 97.5282 43.0464H97.463C97.463 43.0464 97.512 44.0556 97.4468 44.9491L97.1365 49.8786H93.8232L94.7044 38.0509H98.5567ZM139.546 38.0509C143.154 38.0509 145.455 40.2181 145.455 43.9399C145.455 47.6621 143.154 49.8786 139.546 49.8786H134.813V38.0509H139.546ZM148.493 38.0509L149.619 40.499C149.87 41.0716 150.131 41.8205 150.238 42.1356L150.282 42.2678C150.286 42.2795 150.288 42.2857 150.288 42.2857H150.353C150.353 42.2857 150.696 41.2433 151.039 40.499L152.133 38.0509H155.935L152.084 45.1972V49.8786H148.558V45.1972L144.706 38.0509H148.493ZM58.5625 40.962H57.5829V46.9671H58.5625C60.1457 46.9671 61.0759 45.9415 61.0759 43.9399C61.0759 41.9544 60.0967 40.962 58.5625 40.962ZM139.318 40.962H138.339V46.9671H139.318C140.901 46.9671 141.832 45.9415 141.832 43.9399C141.832 41.9544 140.852 40.962 139.318 40.962ZM35.8224 41.0117C34.2882 41.0117 33.1783 42.1697 33.1783 43.8903C33.1783 45.6934 34.2882 46.9175 35.8224 46.9175C37.3571 46.9175 38.4669 45.6934 38.4669 43.8903C38.4669 42.1697 37.3571 41.0117 35.8224 41.0117ZM71.5724 41.0117C70.0385 41.0117 68.9286 42.1697 68.9286 43.8903C68.9286 45.6934 70.0385 46.9175 71.5724 46.9175C73.107 46.9175 74.2169 45.6934 74.2169 43.8903C74.2169 42.1697 73.107 41.0117 71.5724 41.0117ZM114.293 41.0117C112.759 41.0117 111.649 42.1697 111.649 43.8903C111.649 45.6934 112.759 46.9175 114.293 46.9175C115.827 46.9175 116.937 45.6934 116.937 43.8903C116.937 42.1697 115.827 41.0117 114.293 41.0117ZM127.401 41.0117C125.867 41.0117 124.757 42.1697 124.757 43.8903C124.757 45.6934 125.867 46.9175 127.401 46.9175C128.935 46.9175 130.046 45.6934 130.046 43.8903C130.046 42.1697 128.935 41.0117 127.401 41.0117ZM47.6577 40.9292H46.7437V43.4105H47.7884C48.5721 43.4105 49.0286 42.9311 49.0286 42.1533C49.0286 41.4086 48.7186 40.9292 47.6577 40.9292Z" fill="#7C7C7C"/>
<path fill-rule="evenodd" clip-rule="evenodd" d="M6.96052 40.8369C8.65425 40.8369 10.0274 42.229 10.0274 43.9456C10.0274 45.6625 8.65425 47.0542 6.96052 47.0542C5.26646 47.0542 3.89294 45.6625 3.89294 43.9456C3.89294 42.229 5.26646 40.8369 6.96052 40.8369Z" fill="#7C7C7C"/>
<path fill-rule="evenodd" clip-rule="evenodd" d="M6.96048 40.0117L8.35252 38.5948V36.897H5.56812V38.5948L6.96048 40.0117Z" fill="#7C7C7C"/>
<path fill-rule="evenodd" clip-rule="evenodd" d="M5.01935 40.5384L5.5278 38.6065L4.69019 37.1313L2.27563 38.5479L3.11357 40.0174L5.01935 40.5384Z" fill="#7C7C7C"/>
<path fill-rule="evenodd" clip-rule="evenodd" d="M3.59285 41.979L3.0844 40.0468L1.62885 39.1982L0.236816 41.6454L1.69237 42.494L3.59285 41.979Z" fill="#7C7C7C"/>
<path fill-rule="evenodd" clip-rule="evenodd" d="M3.07287 43.9455L1.68083 42.5347H0V45.3567H1.68083L3.07287 43.9455Z" fill="#7C7C7C"/>
<path fill-rule="evenodd" clip-rule="evenodd" d="M3.59285 45.9124L1.69237 45.3975L0.236816 46.246L1.62885 48.6932L3.0844 47.8443L3.59285 45.9124Z" fill="#7C7C7C"/>
<path fill-rule="evenodd" clip-rule="evenodd" d="M5.01373 47.3584L3.11358 47.8737L2.27002 49.3489L4.68458 50.7597L5.52781 49.2845L5.01373 47.3584Z" fill="#7C7C7C"/>
<path fill-rule="evenodd" clip-rule="evenodd" d="M6.96049 47.8857L5.5625 49.2966V51.0001H8.35253V49.2966L6.96049 47.8857Z" fill="#7C7C7C"/>
<path fill-rule="evenodd" clip-rule="evenodd" d="M8.90106 47.3584L8.39294 49.2845L9.23022 50.7597L11.6448 49.3489L10.8072 47.8737L8.90106 47.3584Z" fill="#7C7C7C"/>
<path fill-rule="evenodd" clip-rule="evenodd" d="M10.3221 45.9185L10.8303 47.8443L12.2858 48.6992L13.6838 46.2521L12.2279 45.3975L10.3221 45.9185Z" fill="#7C7C7C"/>
<path fill-rule="evenodd" clip-rule="evenodd" d="M10.8419 43.9455L12.2396 45.362H13.9148V42.5347H12.2396L10.8419 43.9455Z" fill="#7C7C7C"/>
<path fill-rule="evenodd" clip-rule="evenodd" d="M10.3221 41.979L12.2279 42.494L13.6838 41.6454L12.2858 39.1982L10.8359 40.0468L10.3221 41.979Z" fill="#7C7C7C"/>
<path fill-rule="evenodd" clip-rule="evenodd" d="M8.90106 40.5384L10.8072 40.0234L11.6448 38.5479L9.23022 37.1313L8.39294 38.6065L8.90106 40.5384Z" fill="#7C7C7C"/>
<path fill-rule="evenodd" clip-rule="evenodd" d="M149.301 18.0298L157 25.7005L149.562 33.5479H0.230957V18.0298H149.301ZM133.197 19.7846C130.338 19.7846 128.55 22.2549 128.55 25.7464C128.55 29.3365 130.338 31.8722 133.197 31.8722C136.041 31.8722 137.844 29.3198 137.844 25.7625C137.844 22.2385 136.041 19.7846 133.197 19.7846ZM112.235 19.7846C109.051 19.7846 107.182 22.3209 107.182 25.8121C107.182 29.2701 109.002 31.8722 112.121 31.8722C113.535 31.8722 114.494 31.4276 115.225 30.8184L114.413 29.1223C113.827 29.5997 113.113 29.9786 112.268 29.9786C110.367 29.9786 109.213 28.0189 109.213 25.73C109.213 23.49 110.302 21.6786 112.3 21.6786C113.015 21.6786 113.827 22.041 114.217 22.4856L115.046 20.7562C114.299 20.0813 113.226 19.7846 112.235 19.7846ZM7.97647 19.7846C4.95422 19.7846 2.98823 22.222 2.98823 25.8614C2.98823 29.649 5.18148 31.8722 7.52161 31.8722C8.54513 31.8722 9.47139 31.4276 9.94246 30.802H9.97521C9.97521 30.802 9.94246 31.0488 9.94246 31.2466V31.6747H11.5025V25.499H8.44787V27.2776H9.74761V29.1223C9.30896 29.6658 8.6103 29.9457 7.89542 29.9457C6.25429 29.9457 5.01906 28.3153 5.01906 25.7957C5.01906 23.3911 6.09153 21.6786 8.05752 21.6786C8.88652 21.6786 9.66623 22.0078 10.1863 22.502L11.0311 20.8058C10.2187 20.147 9.04895 19.7846 7.97647 19.7846ZM67.1909 19.7846C64.1687 19.7846 62.2027 22.222 62.2027 25.8614C62.2027 29.649 64.3963 31.8722 66.7361 31.8722C67.7596 31.8722 68.6858 31.4276 69.1569 30.802H69.1897C69.1897 30.802 69.1569 31.0488 69.1569 31.2466V31.6747H70.7167V25.499H67.6623V27.2776H68.9621V29.1223C68.5234 29.6658 67.8247 29.9457 67.1099 29.9457C65.4687 29.9457 64.2335 28.3153 64.2335 25.7957C64.2335 23.3911 65.3063 21.6786 67.272 21.6786C68.101 21.6786 68.8807 22.0078 69.4007 22.502L70.2456 20.8058C69.4331 20.147 68.2634 19.7846 67.1909 19.7846ZM50.73 19.9824H48.7474V31.675H50.73V19.9824ZM87.3572 19.9824H84.1564V31.6747H87.3572C90.2005 31.6747 92.0044 29.5011 92.0044 25.8121C92.0044 22.1231 90.2005 19.9824 87.3572 19.9824ZM79.8175 19.9824H77.6722L74.6503 31.6747H76.6325L77.3311 28.6609H80.1586L80.8734 31.6747H82.8556L79.8175 19.9824ZM123.382 19.9824H115.843V21.761H118.621V31.6747H120.587V21.761H123.382V19.9824ZM24.5188 19.9824H22.3418L21.5941 31.6747H23.4463L23.8364 25.1698C23.8853 24.3959 23.8201 23.3583 23.8201 23.3583H23.8853C23.8853 23.3583 24.0802 24.5606 24.2591 25.2358L25.4937 29.6658H27.4276L28.6625 25.2358C28.7037 25.0762 28.7467 24.8902 28.7883 24.6986L28.8691 24.314C28.9723 23.8074 29.0522 23.3583 29.0522 23.3583H29.1011C29.1011 23.3583 29.036 24.3959 29.0846 25.1698L29.4746 31.6747H31.3109L30.5795 19.9824H28.4021L26.8424 25.6639C26.68 26.372 26.4851 27.4422 26.4851 27.4422H26.4362L26.4221 27.3597C26.3766 27.0956 26.2277 26.254 26.0786 25.6639L24.5188 19.9824ZM55.0685 19.9824H52.9887V31.6747H54.8574V25.0544C54.8574 24.3627 54.7436 23.2597 54.7436 23.2597H54.8085C54.8085 23.2597 55.085 24.3135 55.3937 25.038L58.367 31.6747H60.4305V19.9824H58.5784V26.5859C58.5784 27.2776 58.6918 28.381 58.6918 28.381H58.627C58.627 28.381 58.3508 27.3108 58.0421 26.6024L55.0685 19.9824ZM43.6289 19.9824H41.6467V31.6747H47.3498V29.8964H43.6289V19.9824ZM141.696 19.9824H139.616V31.6747H141.485V25.0544C141.485 24.3627 141.371 23.2597 141.371 23.2597H141.436C141.436 23.2597 141.712 24.3135 142.021 25.038L144.994 31.6747H147.058V19.9824H145.206V26.5859C145.206 27.2776 145.32 28.381 145.32 28.381H145.254C145.254 28.381 144.978 27.3108 144.67 26.6024L141.696 19.9824ZM96.9933 19.9824H93.7924V31.6747H96.9933C99.8366 31.6747 101.64 29.5011 101.64 25.8121C101.64 22.1231 99.8366 19.9824 96.9933 19.9824ZM105.41 19.9824H103.428V31.675H105.41V19.9824ZM36.365 19.9824H33.2455V31.6747H36.4298C38.4613 31.6747 39.9073 30.6374 39.9073 28.2989C39.9073 27.0469 39.371 25.911 38.1848 25.5322V25.499C39.0297 25.038 39.5335 24.0996 39.5335 22.9958C39.5335 21.0529 38.201 19.9824 36.365 19.9824ZM126.779 19.9824H124.797V31.675H126.779V19.9824ZM17.5963 19.9824H15.4517L12.4295 31.6747H14.4117L15.1103 28.6609H17.9377L18.6526 31.6747H20.6348L17.5963 19.9824ZM133.197 21.7114C134.822 21.7114 135.797 23.2758 135.797 25.7625C135.797 28.2824 134.822 29.9457 133.197 29.9457C131.556 29.9457 130.581 28.2989 130.581 25.7464C130.581 23.2926 131.556 21.7114 133.197 21.7114ZM36.625 26.4378C37.3885 26.4378 37.8761 27.1298 37.8761 28.1835C37.8761 29.1551 37.4375 29.8964 36.3974 29.8964H35.2277V26.4378H36.625ZM96.9123 21.7775C98.5693 21.7775 99.5931 23.1772 99.5931 25.8121C99.5931 28.4635 98.602 29.8797 96.9123 29.8797H95.7746V21.7775H96.9123ZM87.2762 21.7775C88.9332 21.7775 89.9571 23.1772 89.9571 25.8121C89.9571 28.4635 88.966 29.8797 87.2762 29.8797H86.1385V21.7775H87.2762ZM78.7774 22.0246C78.7774 22.0246 78.9561 23.1608 79.1185 23.8357L79.8496 26.9812H77.6563L78.4036 23.8357C78.5498 23.1608 78.7288 22.0246 78.7288 22.0246H78.7774ZM16.5566 22.0246C16.5566 22.0246 16.7352 23.1608 16.8977 23.8357L17.6291 26.9812H15.4355L16.1828 23.8357C16.329 23.1608 16.5077 22.0246 16.5077 22.0246H16.5566ZM36.3002 21.761C37.0799 21.761 37.5185 22.3702 37.5185 23.2429C37.5185 24.1157 37.0964 24.7745 36.4464 24.7745H35.2277V21.761H36.3002Z" fill="#7C7C7C"/>
<path fill-rule="evenodd" clip-rule="evenodd" d="M91.7458 0L99.4453 7.67104L92.0068 15.5181H0.0196533V0H91.7458ZM75.9488 1.75515C73.089 1.75515 71.3016 4.22511 71.3016 7.7163C71.3016 11.3064 73.089 13.8424 75.9488 13.8424C78.7924 13.8424 80.596 11.29 80.596 7.73306C80.596 4.20868 78.7924 1.75515 75.9488 1.75515ZM10.1701 1.95263H2.63071V3.73125H5.40949V13.6449H7.37515V3.73125H10.1701V1.95263ZM13.5665 1.95263H11.5843V13.6449H13.5665V8.70468H17.125V13.6449H19.091V1.95263H17.125V6.92606H13.5665V1.95263ZM26.8425 1.95263H21.3504V13.6449H27.0373V11.8663H23.3326V8.63863H26.16V6.86001H23.3326V3.73125H26.8425V1.95263ZM32.0586 1.95263H28.7115V13.6449H30.6937V9.28102H31.9448L33.6998 13.6449H35.8771L33.9598 9.29745C33.7646 8.88573 33.6184 8.67149 33.6184 8.67149V8.63863C34.4957 8.12801 35.3082 6.97535 35.3082 5.42739C35.3082 3.92872 34.5933 2.80891 33.5698 2.31472C33.0822 2.06796 32.4973 1.95263 32.0586 1.95263ZM41.4833 1.95263H39.3384L36.3161 13.6449H38.2983L38.9973 10.6312H41.8244L42.5393 13.6449H44.5218L41.4833 1.95263ZM49.1045 1.95263H45.8225V13.6449H47.8047V9.61026H49.1045C51.1194 9.61026 52.5167 8.04587 52.5167 5.77306C52.5167 3.50058 51.1194 1.95263 49.1045 1.95263ZM55.0682 1.95263H52.8909L55.8483 8.75397V13.6449H57.8143V8.75397L60.7714 1.95263H58.5943L57.3267 5.37811C57.067 6.10263 56.8556 6.92606 56.8556 6.92606H56.807C56.807 6.92606 56.6118 6.10263 56.3521 5.37811L55.0682 1.95263ZM70.2288 1.95263H64.8833V13.6449H66.8655V8.88573H69.6764V7.10711H66.8655V3.73125H70.2288V1.95263ZM85.7152 1.95263H82.3681V13.6449H84.3503V9.28102H85.6014L87.3563 13.6449H89.5337L87.6163 9.29745C87.4212 8.88573 87.275 8.67149 87.275 8.67149V8.63863C88.1523 8.12801 88.9647 6.97535 88.9647 5.42739C88.9647 3.92872 88.2498 2.80891 87.2263 2.31472C86.739 2.06796 86.1538 1.95263 85.7152 1.95263ZM75.9488 3.68196C77.5737 3.68196 78.5486 5.24635 78.5486 7.73306C78.5486 10.2526 77.5737 11.9159 75.9488 11.9159C74.3077 11.9159 73.3328 10.2691 73.3328 7.7163C73.3328 5.26277 74.3077 3.68196 75.9488 3.68196ZM40.4433 3.99477C40.4433 3.99477 40.6219 5.13101 40.7847 5.80625L41.5157 8.95144H39.3222L40.0695 5.80625C40.0938 5.69371 40.1191 5.56837 40.1443 5.43761L40.2188 5.0365C40.3151 4.49977 40.3946 3.99477 40.3946 3.99477H40.4433ZM48.7958 3.73125C49.7869 3.73125 50.5021 4.52149 50.5021 5.77306C50.5021 7.0082 49.8359 7.83163 48.7634 7.83163H47.8047V3.73125H48.7958ZM31.7824 3.74768C32.0586 3.74768 32.4159 3.84658 32.6759 4.02763C33.0659 4.32401 33.2935 4.90034 33.2935 5.59201C33.2935 6.7943 32.5625 7.5024 31.75 7.5024H30.6937V3.74768H31.7824ZM85.439 3.74768C85.7152 3.74768 86.0725 3.84658 86.3325 4.02763C86.7225 4.32401 86.9498 4.90034 86.9498 5.59201C86.9498 6.7943 86.2187 7.5024 85.4062 7.5024H84.3503V3.74768H85.439Z" fill="#7C7C7C"/>
</g>
<defs>
<clipPath id="clip0_23_974">
<rect width="157" height="51" fill="white"/>
</clipPath>
</defs>
</svg>
