<svg width="66" height="13" viewBox="0 0 66 13" fill="none" xmlns="http://www.w3.org/2000/svg">
<g clip-path="url(#clip0_23_276)">
<path d="M42.4396 11.6179C42.1492 11.7669 41.8196 11.5059 41.8783 11.1726L42.5027 7.61413L39.8523 5.08936C39.6048 4.85313 39.7335 4.42131 40.0652 4.37466L43.7501 3.85105L45.3931 0.595785C45.5413 0.302382 45.9423 0.302382 46.0905 0.595785L47.7336 3.85105L51.4184 4.37466C51.7502 4.42131 51.8788 4.85313 51.6306 5.08936L48.9809 7.61413L49.6054 11.1726C49.664 11.5059 49.3345 11.7669 49.0441 11.6179L45.7407 9.92073L42.4388 11.6179H42.4396Z" fill="#FF8A00"/>
</g>
<g clip-path="url(#clip1_23_276)">
<path d="M55.7174 11.6179C55.427 11.7669 55.0975 11.5059 55.1562 11.1726L55.7806 7.61413L53.1302 5.08936C52.8827 4.85313 53.0113 4.42131 53.3431 4.37466L57.0279 3.85105L58.671 0.595785C58.8192 0.302382 59.2202 0.302382 59.3684 0.595785L61.0114 3.85105L64.6963 4.37466C65.028 4.42131 65.1567 4.85313 64.9084 5.08936L62.2588 7.61413L62.8832 11.1726C62.9419 11.5059 62.6124 11.7669 62.322 11.6179L59.0185 9.92073L55.7166 11.6179H55.7174Z" fill="#FF8A00"/>
</g>
<g clip-path="url(#clip2_23_276)">
<path d="M15.958 11.6179C15.6677 11.7669 15.3381 11.5059 15.3968 11.1726L16.0212 7.61413L13.3708 5.08936C13.1233 4.85313 13.252 4.42131 13.5837 4.37466L17.2686 3.85105L18.9116 0.595785C19.0598 0.302382 19.4608 0.302382 19.609 0.595785L21.2521 3.85105L24.9369 4.37466C25.2687 4.42131 25.3973 4.85313 25.1491 5.08936L22.4994 7.61413L23.1238 11.1726C23.1825 11.5059 22.853 11.7669 22.5626 11.6179L19.2592 9.92073L15.9573 11.6179H15.958Z" fill="#FF8A00"/>
</g>
<g clip-path="url(#clip3_23_276)">
<path d="M29.1988 11.6179C28.9084 11.7669 28.5789 11.5059 28.6375 11.1726L29.262 7.61413L26.6116 5.08936C26.364 4.85313 26.4927 4.42131 26.8245 4.37466L30.5093 3.85105L32.1524 0.595785C32.3006 0.302382 32.7015 0.302382 32.8498 0.595785L34.4928 3.85105L38.1776 4.37466C38.5094 4.42131 38.6381 4.85313 38.3898 5.08936L35.7401 7.61413L36.3646 11.1726C36.4232 11.5059 36.0937 11.7669 35.8033 11.6179L32.4999 9.92073L29.198 11.6179H29.1988Z" fill="#FF8A00"/>
</g>
<g clip-path="url(#clip4_23_276)">
<path d="M2.71732 11.6179C2.42693 11.7669 2.09742 11.5059 2.1561 11.1726L2.78052 7.61413L0.130114 5.08936C-0.117398 4.85313 0.0112482 4.42131 0.343019 4.37466L4.02786 3.85105L5.67091 0.595785C5.81912 0.302382 6.2201 0.302382 6.36831 0.595785L8.01136 3.85105L11.6962 4.37466C12.028 4.42131 12.1566 4.85313 11.9084 5.08936L9.2587 7.61413L9.88312 11.1726C9.9418 11.5059 9.61229 11.7669 9.3219 11.6179L6.01848 9.92073L2.71657 11.6179H2.71732Z" fill="#FF8A00"/>
</g>
<defs>
<clipPath id="clip0_23_276">
<rect width="12.037" height="12.037" fill="white" transform="translate(39.7222)"/>
</clipPath>
<clipPath id="clip1_23_276">
<rect width="12.037" height="12.037" fill="white" transform="translate(53)"/>
</clipPath>
<clipPath id="clip2_23_276">
<rect width="12.037" height="12.037" fill="white" transform="translate(13.2407)"/>
</clipPath>
<clipPath id="clip3_23_276">
<rect width="12.037" height="12.037" fill="white" transform="translate(26.4814)"/>
</clipPath>
<clipPath id="clip4_23_276">
<rect width="12.037" height="12.037" fill="white"/>
</clipPath>
</defs>
</svg>
