<svg width="54" height="54" viewBox="0 0 54 54" fill="none" xmlns="http://www.w3.org/2000/svg">
<path d="M15.9859 22.0355C15.7897 21.8393 15.5176 21.7264 15.2402 21.7264C14.9628 21.7264 14.6908 21.8392 14.4946 22.0355C14.2984 22.2316 14.1855 22.5037 14.1855 22.7811C14.1855 23.0585 14.2984 23.3306 14.4946 23.5267C14.6907 23.7229 14.9628 23.8358 15.2402 23.8358C15.5176 23.8358 15.7897 23.723 15.9859 23.5267C16.1821 23.3306 16.2949 23.0585 16.2949 22.7811C16.2949 22.5037 16.1821 22.2316 15.9859 22.0355Z" fill="#403E3E"/>
<path d="M50.8358 0H8.85939C7.11473 0 5.69534 1.41939 5.69534 3.16405V20.6718C5.69534 22.4165 7.11473 23.8358 8.85939 23.8358H10.7578C11.3403 23.8358 11.8125 23.3636 11.8125 22.7812C11.8125 22.1988 11.3403 21.7265 10.7578 21.7265H8.85939C8.27784 21.7265 7.80471 21.2533 7.80471 20.6718V3.16405C7.80471 2.5825 8.27784 2.10937 8.85939 2.10937H50.8358C51.4173 2.10937 51.8905 2.5825 51.8905 3.16405V20.6718C51.8905 21.2533 51.4173 21.7265 50.8358 21.7265H43.7813C43.5016 21.7265 43.2333 21.8376 43.0356 22.0354L39.5626 25.5084L36.0896 22.0354C35.8919 21.8376 35.6236 21.7265 35.3439 21.7265H27.1189C27.0414 21.5274 26.9537 21.3309 26.8545 21.1381C26.0994 19.6709 24.8139 18.5986 23.2353 18.1186L21.7104 17.655C21.1736 17.4915 20.6028 17.7775 20.4119 18.3052L18.0158 24.9274C17.3513 26.7642 16.0405 28.2901 14.3252 29.2242L12.076 30.4489C11.5232 29.7779 10.6863 29.3494 9.75113 29.3494H3.0117C1.3512 29.3494 0.000366236 30.7004 0.000366236 32.3608V50.9882C0.000155299 52.6488 1.3511 53.9998 3.01159 53.9998H9.75102C10.8009 53.9998 11.7263 53.4595 12.2655 52.6426L13.3417 53.0647C14.9239 53.6854 16.5881 54 18.2879 54H32.5186C34.6538 54 36.3908 52.2629 36.3908 50.1277C36.3908 49.421 36.1996 48.7584 35.8675 48.1875C37.4384 47.6938 38.5811 46.2242 38.5811 44.4926C38.5811 43.7679 38.3805 43.0893 38.0327 42.5087C39.5367 41.9767 40.6173 40.5412 40.6173 38.8573C40.6173 37.1033 39.4447 35.6189 37.8426 35.1445C38.1684 34.5775 38.3557 33.9214 38.3557 33.2219C38.3557 31.0868 36.6187 29.3496 34.4835 29.3496H26.0262L27.2089 25.8382C27.4299 25.1817 27.5346 24.5067 27.5274 23.8359H34.907L38.8168 27.7458C39.0228 27.9516 39.2927 28.0547 39.5626 28.0547C39.8325 28.0547 40.1025 27.9516 40.3084 27.7458L44.2183 23.8358H50.8358C52.5804 23.8358 53.9998 22.4165 53.9998 20.6718V3.16405C53.9998 1.41939 52.5804 0 50.8358 0ZM10.6531 50.9883C10.653 51.4857 10.2484 51.8904 9.75102 51.8904H3.01159C2.5142 51.8904 2.10963 51.4857 2.10963 50.9883V32.361C2.10963 31.8636 2.5142 31.4589 3.01159 31.4589H5.32662V44.4442C5.32662 45.0266 5.7988 45.4989 6.38131 45.4989C6.96381 45.4989 7.43599 45.0266 7.43599 44.4442V31.4589H9.75102C10.1449 31.4589 10.4798 31.7132 10.6025 32.0659C10.6112 32.1169 10.6239 32.1675 10.6405 32.2176C10.648 32.2644 10.6531 32.312 10.6531 32.361V50.9883V50.9883ZM34.4836 31.4588V31.4589C35.4557 31.4589 36.2465 32.2497 36.2465 33.2218C36.2465 34.1939 35.4557 34.9848 34.4836 34.9848H28.7618C28.1793 34.9848 27.7071 35.4571 27.7071 36.0395C27.7071 36.6219 28.1793 37.0942 28.7618 37.0942L36.7451 37.0944C37.7172 37.0944 38.508 37.8852 38.508 38.8573C38.508 39.8294 37.7172 40.6203 36.7451 40.6203H28.7618C28.1793 40.6203 27.7071 41.0926 27.7071 41.675C27.7071 42.2574 28.1793 42.7297 28.7618 42.7297H34.7089C35.681 42.7297 36.4718 43.5205 36.4718 44.4926C36.4718 45.4647 35.681 46.2555 34.7089 46.2555H28.7618C28.1793 46.2555 27.7071 46.7277 27.7071 47.3101C27.7071 47.8925 28.1793 48.3648 28.7618 48.3648H32.5187C33.4908 48.3648 34.2816 49.1557 34.2816 50.1278C34.2816 51.0999 33.4908 51.8907 32.5187 51.8907H18.2879C16.8528 51.8907 15.4478 51.625 14.1118 51.1011L12.7624 50.5719V32.477L15.3338 31.0768C17.5023 29.8959 19.1591 27.967 19.9992 25.6452L22.0546 19.9644L22.6216 20.1368C23.65 20.4495 24.4872 21.1479 24.9791 22.1034C25.471 23.059 25.5529 24.1462 25.2098 25.1647L23.5585 30.0674C23.4501 30.3893 23.5034 30.7437 23.7014 31.0194C23.8996 31.2952 24.2183 31.4588 24.558 31.4588H34.4836Z" fill="#DC3801"/>
<path d="M49.1694 10.2279C48.9696 9.61366 48.4484 9.17439 47.8091 9.08168L45.9435 8.81115L45.1088 7.12102C44.8227 6.5419 44.244 6.18225 43.5981 6.18225C43.5981 6.18225 43.5978 6.18225 43.5977 6.18225C42.9517 6.18246 42.3729 6.54243 42.0872 7.12176L41.2534 8.81242L39.3878 9.084C38.7486 9.17713 38.2276 9.61662 38.0282 10.2311C37.8287 10.8454 37.9922 11.5072 38.455 11.9581L39.8052 13.2735L39.487 15.1316C39.3779 15.7684 39.6349 16.3996 40.1577 16.7793C40.453 16.9937 40.7983 17.1025 41.1461 17.1025C41.414 17.1025 41.6834 17.0379 41.9322 16.907L43.6006 16.0293L45.2694 16.9061C45.8412 17.2064 46.5211 17.1572 47.0437 16.7773C47.5662 16.3974 47.8228 15.7659 47.7134 15.1292L47.3943 13.2714L48.7439 11.9552C49.206 11.504 49.3692 10.8422 49.1694 10.2279ZM45.7614 11.9172C45.3643 12.3044 45.1834 12.862 45.2773 13.4086L45.4886 14.6386L44.3834 14.0579C43.8923 13.8003 43.3062 13.8003 42.8157 14.0585L41.7111 14.6397L41.9217 13.4096C42.0154 12.8627 41.8341 12.3052 41.4368 11.9183L40.5427 11.0473L41.7779 10.8675C42.3268 10.7876 42.8009 10.443 43.0461 9.94557L43.5982 8.82624L44.1509 9.94526C44.3965 10.4425 44.8708 10.7869 45.4197 10.8665L46.6548 11.0456L45.7614 11.9172Z" fill="#403E3E"/>
<path d="M35.7525 10.2279C35.5527 9.61366 35.0316 9.17449 34.3922 9.08168L32.5267 8.81115L31.6919 7.12102C31.4059 6.5419 30.8272 6.18225 30.1813 6.18225C30.1812 6.18225 30.181 6.18225 30.1809 6.18225C29.5349 6.18246 28.9559 6.54243 28.6702 7.12187L27.8365 8.81242L25.971 9.084C25.3317 9.17713 24.8107 9.61662 24.6113 10.2311C24.4118 10.8454 24.5753 11.5072 25.0381 11.9581L26.3883 13.2735L26.0701 15.1316C25.9611 15.7684 26.2181 16.3997 26.7408 16.7793C27.036 16.9937 27.3814 17.1025 27.7291 17.1025C27.997 17.1025 28.2663 17.0379 28.5151 16.907L30.1835 16.0293L31.8524 16.9061C32.4244 17.2064 33.104 17.1572 33.6267 16.7773C34.1492 16.3974 34.4058 15.7659 34.2964 15.1292L33.9773 13.2714L35.327 11.9552C35.7892 11.504 35.9524 10.8423 35.7525 10.2279ZM32.3445 11.9172C31.9474 12.3044 31.7666 12.862 31.8604 13.4086L32.0717 14.6386L30.9665 14.058C30.4753 13.8001 29.8892 13.8004 29.3987 14.0585L28.2941 14.6397L28.5048 13.4096C28.5984 12.8627 28.4171 12.3052 28.0198 11.9183L27.1258 11.0473L28.3608 10.8675C28.9096 10.7876 29.3837 10.4431 29.6293 9.94547L30.1813 8.82613L30.7338 9.94504C30.9794 10.4424 31.4537 10.7869 32.0027 10.8665L33.2379 11.0456L32.3445 11.9172Z" fill="#403E3E"/>
<path d="M22.3356 10.2279C22.1358 9.61366 21.6145 9.17439 20.9753 9.08168L19.1098 8.81115L18.275 7.12102C17.989 6.5419 17.4103 6.18225 16.7644 6.18225C16.7643 6.18225 16.7641 6.18225 16.7639 6.18225C16.118 6.18246 15.539 6.54243 15.2533 7.12187L14.4196 8.81242L12.5541 9.084C11.9147 9.17713 11.3938 9.61672 11.1943 10.2312C10.9948 10.8455 11.1584 11.5073 11.6211 11.9581L12.9713 13.2735L12.6531 15.1316C12.5441 15.7684 12.8011 16.3997 13.3238 16.7793C13.619 16.9937 13.9644 17.1025 14.3121 17.1025C14.58 17.1025 14.8493 17.0379 15.0981 16.907L16.7665 16.0293L18.4353 16.9061C19.0072 17.2064 19.687 17.1572 20.2096 16.7773C20.7321 16.3974 20.9887 15.7659 20.8793 15.1292L20.5602 13.2714L21.9099 11.9552C22.3723 11.504 22.5354 10.8423 22.3356 10.2279ZM18.9276 11.9172C18.5305 12.3044 18.3497 12.862 18.4435 13.4086L18.6548 14.6386L17.5496 14.058C17.0585 13.8001 16.4722 13.8004 15.9818 14.0585L14.8772 14.6397L15.088 13.4093C15.1814 12.8626 15.0001 12.3053 14.6029 11.9183L13.7088 11.0473L14.9439 10.8675C15.4927 10.7876 15.9668 10.4431 16.2123 9.94547L16.7644 8.82613L17.3169 9.94504C17.5624 10.4424 18.0368 10.7869 18.5858 10.8665L19.8211 11.0456L18.9276 11.9172Z" fill="#403E3E"/>
<path d="M6.38122 47.1823C5.79872 47.1823 5.32654 47.6545 5.32654 48.2369V48.2534C5.32654 48.8358 5.79872 49.3081 6.38122 49.3081C6.96372 49.3081 7.4359 48.8358 7.4359 48.2534V48.2369C7.4359 47.6545 6.96372 47.1823 6.38122 47.1823Z" fill="#403E3E"/>
</svg>
