<svg width="54" height="52" viewBox="0 0 54 52" fill="none" xmlns="http://www.w3.org/2000/svg">
<path d="M24.3116 27.4555C23.9371 27.5722 23.6819 27.9192 23.6819 28.3114V36.9816C23.7186 38.167 25.4387 38.1661 25.4751 36.9816V31.1875L29.703 37.3097C29.9738 37.7012 30.4229 37.8691 30.8469 37.7365C31.2812 37.6009 31.562 37.1895 31.562 36.6801L31.4808 28.2865C31.476 27.7912 31.0658 27.3922 30.5755 27.3985C30.0804 27.4034 29.6828 27.8086 29.6877 28.3037L29.7449 34.2146L25.3163 27.8018C25.0935 27.479 24.6867 27.3387 24.3116 27.4555Z" fill="#403E3E"/>
<path d="M7.29203 27.3988H4.7689C4.27373 27.3988 3.87231 27.8002 3.87231 28.2954V36.9818C3.87231 37.4737 4.2828 37.8784 4.77291 37.8784C4.77312 37.8784 7.09322 37.868 7.73268 37.868C10.8715 37.8587 12.1397 33.8154 9.62205 32.0103C11.0311 30.1492 9.64451 27.3768 7.29203 27.3988ZM7.29203 29.192C8.75246 29.2476 8.75162 31.341 7.29203 31.3963C7.1063 31.3963 5.66549 31.3986 5.66549 31.3986V29.1919H7.29203V29.192ZM7.73279 36.0748C7.3551 36.0748 6.3927 36.0784 5.6656 36.0813V33.1945C5.89352 33.1936 7.73279 33.1918 7.73279 33.1918C9.64283 33.2646 9.64146 36.0027 7.73279 36.0748Z" fill="#403E3E"/>
<path d="M46.6106 36.0851C45.6948 36.0851 44.8115 35.7138 44.2479 35.092C43.9153 34.725 43.3483 34.6974 42.9814 35.0297C42.6146 35.3622 42.5868 35.9293 42.9193 36.2961C44.8787 38.545 49.366 38.5138 50.0796 35.2566C50.2823 34.1209 49.7573 32.6336 47.6751 31.8657C46.5777 31.4609 45.5583 31.0194 45.2784 30.8965C45.045 30.7198 44.9324 30.4413 44.9756 30.1403C45.0028 29.9511 45.1374 29.4895 45.7993 29.2901C47.1257 28.8903 48.3354 29.8545 48.3642 29.8776C48.7432 30.1926 49.3062 30.143 49.6236 29.7652C49.9423 29.3861 49.8933 28.8206 49.5143 28.5019C49.4355 28.4355 47.5584 26.8873 45.2819 27.5732C44.1541 27.9129 43.3566 28.7989 43.2006 29.8855C43.0548 30.9005 43.4945 31.8768 44.3481 32.4332C44.3876 32.459 44.4293 32.4817 44.4724 32.501C44.5225 32.5233 45.7131 33.0534 47.0545 33.548C47.9538 33.8798 48.4131 34.3877 48.3141 34.9415C48.2139 35.5036 47.5492 36.0851 46.6106 36.0851Z" fill="#403E3E"/>
<path d="M34.3326 27.3988C33.8374 27.3988 33.436 27.8002 33.436 28.2954V34.2725C33.436 35.5319 34.0172 36.5156 35.2127 37.2794C36.372 38.0201 37.9101 38.0709 39.1347 37.4542C40.8954 36.5675 41.2651 35.2311 41.2651 34.2662V28.2954C41.2248 27.1103 39.5133 27.1073 39.4719 28.2954V34.2662C39.4719 34.6999 39.3534 35.3364 38.3282 35.8525C37.6643 36.1871 36.8085 36.171 36.1781 35.7682C35.5042 35.3376 35.2293 34.9043 35.2293 34.2724V28.2953C35.2292 27.8001 34.8277 27.3988 34.3326 27.3988Z" fill="#403E3E"/>
<path d="M11.7637 32.6386C11.7637 35.5278 14.1143 37.8784 17.0035 37.8784C23.9452 37.6149 23.9433 27.6612 17.0034 27.3988C14.1143 27.3988 11.7637 29.7493 11.7637 32.6386ZM20.4501 32.6386C20.4501 34.539 18.9039 36.0852 17.0035 36.0852C12.4374 35.9119 12.4387 29.3646 17.0035 29.192C18.9039 29.192 20.4501 30.7382 20.4501 32.6386Z" fill="#403E3E"/>
<path d="M1.04817 24.8282H52.9452C53.5278 24.8282 54 24.3558 54 23.7734C54 23.1909 53.5277 22.7186 52.9452 22.7186H49.2146C48.5341 20.2724 47.459 17.9728 46.0109 15.8678L46.0053 12.5373L48.1692 9.56947C48.5855 8.99836 48.3123 8.16125 47.6411 7.9443L44.1461 6.81516L41.9921 3.84031C41.5782 3.26845 40.6973 3.26845 40.2833 3.84031L38.1294 6.81516L35.7245 7.59215L35.811 7.47349C36.2273 6.90238 35.9541 6.06517 35.2829 5.84832L30.6848 4.36269L27.8511 0.448747C27.4371 -0.123 26.5562 -0.123105 26.1422 0.448747L23.3085 4.36269L18.7104 5.84811C18.0392 6.06506 17.766 6.90217 18.1823 7.47328L18.2688 7.59193L15.8639 6.81495L13.71 3.84009C13.2962 3.26835 12.4152 3.26814 12.0012 3.84009L9.84733 6.81505L6.3523 7.9442C5.6811 8.16115 5.40804 8.99825 5.82422 9.56937L7.98812 12.5372L7.98253 15.8668C6.53424 17.9725 5.45909 20.2723 4.77871 22.7185H1.04817C-0.349392 22.77 -0.349392 24.7766 1.04817 24.8282ZM39.1058 8.71644C39.3189 8.64768 39.5045 8.51268 39.6359 8.33138L41.1376 6.25744L42.6394 8.33138C42.7707 8.51278 42.9563 8.64768 43.1694 8.71644L45.6061 9.50377L44.0975 11.5727C43.9656 11.7537 43.8946 11.9719 43.8951 12.196L43.8994 14.7565L41.4654 13.9612C41.2543 13.8924 41.0211 13.8923 40.8101 13.9612L38.3761 14.7565L38.3803 12.196C38.3806 11.9721 38.3098 11.7537 38.1779 11.5727L36.6694 9.50377L39.1058 8.71644ZM24.285 6.26398C24.4982 6.19521 24.6838 6.06021 24.8152 5.87891L26.9968 2.86588L29.1783 5.87891C29.3096 6.06032 29.4952 6.19521 29.7085 6.26398L33.2482 7.40768L31.0567 10.4135C30.9248 10.5945 30.8539 10.8127 30.8543 11.0368L30.8602 14.7566L27.3244 13.6012C27.1128 13.5322 26.8808 13.5322 26.6692 13.6012L23.1334 14.7566L23.1393 11.0368C23.1397 10.8128 23.0688 10.5945 22.9369 10.4135L20.7454 7.40768L24.285 6.26398ZM10.8239 8.71644C11.0369 8.64768 11.2225 8.51268 11.3539 8.33138L12.8557 6.25744L14.3574 8.33138C14.4887 8.51278 14.6743 8.64768 14.8875 8.71644L17.3241 9.50377L15.8156 11.5727C15.6838 11.7537 15.6128 11.9719 15.6132 12.196L15.6174 14.7565L13.1834 13.9612C12.9722 13.8922 12.7395 13.8923 12.5281 13.9612L10.0941 14.7565L10.0984 12.196C10.0988 11.9721 10.0279 11.7537 9.89605 11.5727L8.38732 9.50377L10.8239 8.71644ZM9.68659 17.1095L12.8558 16.0738L16.3468 17.2146C17.0168 17.4348 17.7306 16.9162 17.7294 16.2102L17.7233 12.5374L19.7986 9.69097L21.0287 11.3786L21.0211 16.2104C21.0199 16.9155 21.7312 17.4346 22.404 17.2149L26.9968 15.7143L31.5895 17.2149C32.2604 17.4351 32.9736 16.9155 32.9724 16.2104L32.9648 11.3786L34.1949 9.69097L36.2702 12.5374L36.2641 16.2102C36.2629 16.9185 36.9764 17.432 37.6467 17.2146L41.1377 16.0738L44.3063 17.1093C45.4934 18.8451 46.4024 20.726 47.0179 22.7186H6.97541C7.59072 20.7263 8.49944 18.8458 9.68659 17.1095Z" fill="#DC3801"/>
<path d="M52.9452 40.6947H1.04817C-0.349919 40.7466 -0.348864 42.7529 1.04817 42.8043H8.57801C11.9177 47.2314 16.7023 50.2987 22.1092 51.4655C22.6787 51.5884 23.2399 51.2263 23.3627 50.6569C23.4856 50.0874 23.1236 49.5261 22.5541 49.4033C18.1785 48.459 14.2509 46.1435 11.2999 42.8042H42.6936C39.719 46.1706 35.7548 48.4937 31.336 49.424C30.7659 49.5441 30.4011 50.1034 30.521 50.6734C30.6385 51.2474 31.215 51.6099 31.7705 51.4884C37.2259 50.34 42.0509 47.2646 45.4155 42.8043H52.9452C54.3431 42.7525 54.3421 40.7461 52.9452 40.6947Z" fill="#DC3801"/>
<path d="M27.9702 50.5264C27.5975 49.6323 26.2709 49.6968 25.9878 50.6242C25.705 51.551 26.7777 52.3418 27.582 51.807C27.9975 51.5306 28.1587 50.9863 27.9702 50.5264Z" fill="#DC3801"/>
</svg>
