<svg width="54" height="54" viewBox="0 0 54 54" fill="none" xmlns="http://www.w3.org/2000/svg">
<path d="M49.804 37.2532C50.5005 37.2532 51.0673 36.6877 51.0673 35.9928V33.8032H52.7247C53.4279 33.8032 53.9999 33.231 53.9999 32.5278V29.6339C53.9999 28.9307 53.4278 28.3586 52.7247 28.3586H50.4454V19.6639C50.6686 19.7195 50.8974 19.7488 51.1279 19.7488C51.3783 19.7488 51.6306 19.7158 51.8793 19.6489C52.6201 19.4499 53.2373 18.976 53.6155 18.3168C53.9976 17.6565 54.0989 16.8847 53.9006 16.1435C53.7022 15.4018 53.2285 14.7831 52.567 14.4015L28.5366 0.527886C28.0966 0.271913 27.5651 0.136597 26.9998 0.136597C26.4345 0.136597 25.9031 0.271913 25.4654 0.52662L1.43179 14.4018C0.0635403 15.1937 -0.406429 16.9495 0.383638 18.3158C0.765435 18.9774 1.38348 19.4511 2.12419 19.6495C2.60154 19.7773 3.09176 19.78 3.5573 19.664V28.3585H1.27801C0.574747 28.3585 0.00268476 28.9306 0.00268476 29.6338V32.5277C0.00268476 33.2309 0.574853 33.8031 1.27801 33.8031H2.93535V35.9927C2.93535 36.6877 3.50077 37.2531 4.1957 37.2531H5.14766V44.9687H4.1957C3.50077 44.9687 2.93535 45.5354 2.93535 46.232V48.4187H1.27801C0.574747 48.4187 0.00268476 48.9909 0.00268476 49.694V52.588C0.00268476 53.2912 0.574853 53.8633 1.27801 53.8633H25.3497C25.7865 53.8633 26.1407 53.5092 26.1407 53.0723C26.1407 52.6355 25.7866 52.2813 25.3497 52.2813H1.58461V50.0007H52.418V52.2813H28.9998C28.563 52.2813 28.2088 52.6355 28.2088 53.0723C28.2088 53.5092 28.5629 53.8633 28.9998 53.8633H52.7247C53.4279 53.8633 53.9999 53.2912 53.9999 52.588V49.694C53.9999 48.9909 53.4278 48.4187 52.7247 48.4187H51.0673V46.232C51.0673 45.5354 50.5005 44.9687 49.804 44.9687H48.8521V37.2531H49.804V37.2532ZM3.50752 17.9948C3.21157 18.1654 2.86584 18.2104 2.53341 18.1213C2.20129 18.0323 1.92433 17.8206 1.75389 17.5251C1.75368 17.5248 1.75357 17.5246 1.75336 17.5243C1.39941 16.9127 1.61066 16.1261 2.22354 15.7714L26.2586 1.89539C26.4516 1.78307 26.7218 1.71863 26.9998 1.71863C27.282 1.71863 27.5452 1.78138 27.7434 1.89666L51.7765 15.7716C52.0718 15.942 52.2834 16.2193 52.3726 16.5524C52.4616 16.885 52.4167 17.2302 52.245 17.5269C52.0762 17.8211 51.8006 18.0321 51.4689 18.1213C51.1364 18.2107 50.7908 18.1661 50.4955 17.9951L27.3953 4.65825C27.273 4.58759 27.1364 4.55226 26.9998 4.55226C26.8633 4.55226 26.7267 4.58759 26.6043 4.65825L3.50752 17.9948ZM1.58461 29.9406H25.3497C25.7865 29.9406 26.1407 29.5864 26.1407 29.1496C26.1407 28.7127 25.7866 28.3586 25.3497 28.3586H5.13922V18.8793L26.9998 6.25663L48.8635 18.8794V28.3586H28.8683C28.4315 28.3586 28.0773 28.7127 28.0773 29.1496C28.0773 29.5864 28.4314 29.9406 28.8683 29.9406H52.418V32.2211H1.58461V29.9406ZM22.0958 35.6711V33.8032H31.9039V35.6711H22.0958ZM29.6887 37.2532V44.9688H24.311V37.2532H29.6887ZM4.51738 35.6711V33.8032H14.3225V35.6711H4.51738ZM12.1103 37.2532V44.9688H6.72969V37.2532H12.1103ZM14.3225 48.4188H4.51738V46.5509H14.3225V48.4188ZM20.5137 46.2321V48.4188H15.9044V46.2321C15.9044 45.5355 15.3391 44.9688 14.6441 44.9688H13.6922V37.2532H14.6441C15.3391 37.2532 15.9044 36.6877 15.9044 35.9928V33.8032H20.5137V35.9928C20.5137 36.6878 21.0805 37.2532 21.777 37.2532H22.729V44.9688H21.777C21.0805 44.9688 20.5137 45.5355 20.5137 46.2321ZM31.9039 48.4188H22.0958V46.5509H31.9039V48.4188ZM38.0951 46.2321V48.4188H33.4858V46.2321C33.4858 45.5355 32.9191 44.9688 32.2225 44.9688H31.2707V37.2532H32.2225C32.9191 37.2532 33.4858 36.6877 33.4858 35.9928V33.8032H38.0951V35.9928C38.0951 36.6878 38.6619 37.2532 39.3586 37.2532H40.3104V44.9688H39.3586C38.6619 44.9688 38.0951 45.5355 38.0951 46.2321ZM49.4854 46.5509V48.4188H39.6772V46.5509H49.4854ZM41.8924 44.9688V37.2532H47.2701V44.9688H41.8924ZM39.6772 35.6711V33.8032H49.4854V35.6711H39.6772Z" fill="#DC3801"/>
<path d="M30.4394 12.5512C30.4394 10.7188 28.9487 9.22803 27.1163 9.22803C25.2839 9.22803 23.7932 10.7188 23.7932 12.5512C23.7932 14.3837 25.2839 15.8745 27.1163 15.8745C28.9487 15.8745 30.4394 14.3837 30.4394 12.5512ZM25.3752 12.5512C25.3752 11.5912 26.1563 10.8101 27.1163 10.8101C28.0763 10.8101 28.8574 11.5912 28.8574 12.5512C28.8574 13.5113 28.0763 14.2924 27.1163 14.2924C26.1563 14.2924 25.3752 13.5113 25.3752 12.5512Z" fill="#DC3801"/>
<path d="M17.4581 21.6479C17.6752 21.3066 17.8028 20.903 17.8028 20.4694C17.8028 19.2539 16.8138 18.2649 15.5983 18.2649H13.814C13.377 18.2649 13.0229 18.6191 13.0229 19.0559V21.8845V21.889V25.1987C13.0229 25.4091 13.1068 25.6109 13.2559 25.7593C13.4041 25.9069 13.6048 25.9897 13.814 25.9897H13.8174C13.8174 25.9897 15.4578 25.9825 15.9099 25.9825C17.2577 25.9825 18.3544 24.8859 18.3544 23.538C18.3543 22.7773 18.0049 22.0967 17.4581 21.6479ZM15.5983 19.847C15.9416 19.847 16.2208 20.1262 16.2208 20.4695C16.2208 20.8128 15.9416 21.092 15.5983 21.092C15.4678 21.092 14.605 21.0937 14.605 21.0937V19.8471H15.5983V19.847ZM15.9099 24.4005C15.6693 24.4005 15.093 24.4026 14.605 24.4045V22.6769C14.7215 22.6764 15.9099 22.6756 15.9099 22.6756C16.3855 22.6756 16.7724 23.0625 16.7724 23.5381C16.7723 24.0137 16.3854 24.4005 15.9099 24.4005Z" fill="#403E3E"/>
<path d="M23.8434 18.863C23.8408 18.856 23.838 18.8489 23.8352 18.8418C23.6912 18.4913 23.3536 18.265 22.9748 18.265C22.9746 18.265 22.9744 18.265 22.9743 18.265C22.5951 18.2652 22.2574 18.4921 22.1138 18.8429C22.1113 18.8489 22.1089 18.8549 22.1067 18.8609L19.8001 24.9172C19.6445 25.3255 19.8495 25.7825 20.2578 25.938C20.6656 26.0935 21.123 25.8886 21.2785 25.4803L21.659 24.4814H24.2731L24.6492 25.4781C24.7687 25.7949 25.0697 25.9901 25.3894 25.9901C25.4822 25.9901 25.5766 25.9736 25.6686 25.9389C26.0773 25.7846 26.2836 25.3283 26.1293 24.9196L23.8434 18.863ZM22.2614 22.8995L22.972 21.034L23.676 22.8995H22.2614Z" fill="#403E3E"/>
<path d="M32.8643 18.265C32.8617 18.265 32.859 18.265 32.8565 18.265C32.4195 18.2692 32.0688 18.6268 32.073 19.0636L32.1086 22.7316L29.2678 18.618C29.0712 18.3331 28.7124 18.2094 28.3814 18.3124C28.051 18.4154 27.8258 18.7214 27.8258 19.0675V25.199C27.8258 25.6358 28.1799 25.99 28.6168 25.99C29.0538 25.99 29.4078 25.6358 29.4078 25.199V21.605L32.1118 25.5205C32.3431 25.855 32.7299 25.9974 33.0966 25.8827C33.4707 25.766 33.7124 25.4163 33.7124 24.9843L33.6551 19.0484C33.6508 18.6141 33.2975 18.265 32.8643 18.265Z" fill="#403E3E"/>
<path d="M40.9169 24.6296L38.1539 21.964L40.6822 19.6401C41.0039 19.3445 41.025 18.844 40.7292 18.5223C40.4337 18.2008 39.9331 18.1796 39.6116 18.4753L37.5922 20.3316V18.9791C37.5922 18.5423 37.2381 18.1881 36.8011 18.1881C36.3642 18.1881 36.0101 18.5423 36.0101 18.9791V25.1988C36.0101 25.6357 36.3642 25.9898 36.8011 25.9898C37.2381 25.9898 37.5922 25.6357 37.5922 25.1988V23.6202L39.8185 25.7682C39.972 25.9162 40.1699 25.99 40.3676 25.99C40.5748 25.99 40.7817 25.9091 40.9369 25.7482C41.2403 25.4337 41.2314 24.9329 40.9169 24.6296Z" fill="#403E3E"/>
</svg>
