<svg width="48" height="54" viewBox="0 0 48 54" fill="none" xmlns="http://www.w3.org/2000/svg">
<path d="M46.19 9.32461C38.7602 7.28885 31.2868 4.11899 24.5777 0.157807C24.2213 -0.0526024 23.7791 -0.0526024 23.4228 0.157807C16.5201 4.2328 9.45052 7.23116 1.80985 9.32461C1.31626 9.45971 0.974121 9.90837 0.974121 10.4202V22.0266C0.974121 33.9786 6.48791 41.89 11.1136 46.4221C16.0934 51.3016 21.8941 54 24.0002 54C26.1061 54 31.9069 51.3016 36.8867 46.4221C41.5122 41.8901 47.0257 33.9787 47.0257 22.0266V10.4201C47.0257 9.90837 46.6836 9.45971 46.19 9.32461ZM44.7539 22.0265C44.7539 33.1896 39.6112 40.5719 35.2966 44.7993C30.3996 49.5976 25.1639 51.728 24.0002 51.728C22.8366 51.728 17.6005 49.5976 12.7034 44.7993C8.38898 40.5718 3.24602 33.1896 3.24602 22.0265V11.2824C10.5527 9.20785 17.3573 6.31263 24.0004 2.45217C30.4777 6.21023 37.6218 9.24941 44.7539 11.282V22.0265Z" fill="#DC3801"/>
<path d="M13.9317 11.1553C13.7017 10.5716 13.0422 10.2848 12.4584 10.5148C10.4292 11.3144 8.34636 12.0503 6.26789 12.7023C5.79424 12.8511 5.47192 13.2898 5.47192 13.7861V18.1727C5.47192 18.8 5.9806 19.3086 6.60782 19.3086C7.23504 19.3086 7.74372 18.8 7.74372 18.1727V14.6163C9.60829 14.013 11.4709 13.3457 13.2911 12.6284C13.8749 12.3986 14.1617 11.7391 13.9317 11.1553Z" fill="#DC3801"/>
<path d="M16.0894 11.3708C16.2418 11.3708 16.3965 11.3401 16.5449 11.2753L16.5658 11.2663C17.1405 11.0144 17.3993 10.3454 17.1475 9.77094C16.8954 9.19624 16.2226 8.93626 15.6486 9.18791L15.6302 9.19582C15.0552 9.44694 14.7955 10.1154 15.0467 10.6902C15.233 11.1169 15.6512 11.3708 16.0894 11.3708Z" fill="#DC3801"/>
<path d="M37.5339 36.6275C37.0089 36.2844 36.305 36.4319 35.9615 36.9571C35.0255 38.3897 33.9274 39.7617 32.6972 41.0344C31.6855 42.0808 30.5893 43.0562 29.4389 43.9332C28.9402 44.3135 28.8442 45.0262 29.2244 45.5252C29.4481 45.8183 29.7863 45.9725 30.1285 45.9725C30.3687 45.9725 30.6108 45.8967 30.8165 45.7397C32.0573 44.7936 33.2396 43.7417 34.3304 42.6134C35.6604 41.2377 36.849 39.7527 37.8634 38.1997C38.2067 37.6745 38.059 36.9706 37.5339 36.6275Z" fill="#DC3801"/>
<path d="M26.8009 45.7146L26.7358 45.753C26.1929 46.0674 26.0074 46.7622 26.3217 47.3051C26.5323 47.6689 26.9136 47.8721 27.3058 47.8721C27.4988 47.8721 27.6948 47.8228 27.8738 47.7189L27.949 47.6748C28.4903 47.3577 28.6722 46.6619 28.3551 46.1206C28.0379 45.5794 27.342 45.3979 26.8009 45.7146Z" fill="#DC3801"/>
<path d="M16.2574 24.6816C15.5599 23.984 14.6323 23.6001 13.6457 23.6001C12.6592 23.6001 11.7315 23.9841 11.0337 24.6816C9.59374 26.1219 9.59374 28.4654 11.0337 29.9056L17.7411 36.6127C18.4387 37.3101 19.3663 37.6941 20.3529 37.6941C21.3396 37.6941 22.2672 37.3101 22.9648 36.6125L36.9669 22.6103C38.4068 21.1697 38.4068 18.8265 36.9667 17.3868C36.2692 16.6892 35.3416 16.3053 34.3548 16.3053C33.3681 16.3053 32.4406 16.6893 31.7429 17.3868L20.3528 28.7768L16.2574 24.6816ZM33.3494 18.9933C33.6178 18.7249 33.975 18.5771 34.3549 18.5771C34.735 18.5771 35.0919 18.7249 35.3606 18.9933C35.9148 19.5475 35.9148 20.4497 35.3603 21.0041L21.3584 35.0061C21.09 35.2746 20.7328 35.4223 20.3529 35.4223C19.973 35.4223 19.6158 35.2746 19.3473 35.0061L12.6401 28.2992C12.0857 27.7447 12.0856 26.8426 12.6399 26.2883C12.9084 26.0199 13.2656 25.8719 13.6456 25.8719C14.0256 25.8719 14.3826 26.0197 14.6511 26.2881L19.5496 31.1867C19.7627 31.3996 20.0515 31.5193 20.3528 31.5193C20.6541 31.5193 20.9429 31.3997 21.1558 31.1867L33.3494 18.9933Z" fill="black"/>
</svg>
